<svg xmlns="http://www.w3.org/2000/svg" viewBox="0 0 407.61 608.98">
  <defs>
    <style>

     #olhos {
       animation: movimento-olhos 2.5s ease-in-out infinite
       alternate;
     }
      @keyframes movimento-olhos {
        to {
          transform: translate(4px, -1px)
        }
      }
    

      .cls-1 {
        fill: #6a4133;
      }

      .cls-2 {
        fill: #7f4e2f;
      }

      .cls-15, .cls-16, .cls-17, .cls-2 {
        stroke: #000;
        stroke-miterlimit: 10;
      }

      .cls-3 {
        fill: #1d1d1b;
      }

      .cls-16, .cls-4 {
        fill: #fff;
      }

      .cls-17, .cls-5 {
        fill: #e63121;
      }

      .cls-6 {
        fill: #56c1dd;
      }

      .cls-7 {
        fill: #bbdcdf;
      }

      .cls-8 {
        fill: #fbceab;
      }

      .cls-9 {
        fill: #8c523c;
      }

      .cls-10 {
        fill: #fcdbc5;
      }

      .cls-11 {
        fill: #dadada;
      }

      .cls-12 {
        fill: #63140d;
      }

      .cls-13 {
        fill: #2d0e0f;
      }

      .cls-14 {
        fill: #f6b5b4;
      }

      .cls-15 {
        fill: none;
      }
    </style>
  </defs>
  <g id="sapato">
    <path class="cls-1" d="M152.21,687.94s-11.94,11.69,3,24.88c0,0,12.12,10.61,40.4,8.24,0,0,33.39-.4,38.9-3.12s7.35-5.12,7.35-5.12l13.65-2.57,11-5.58,7.55-8.57v-5l-3.69-5.86-.51,8.86" transform="translate(-83.81 -134.86)"/>
    <path class="cls-1" d="M178.23,677.12s.42-7.87,3.46-7.93c0,0,16.87-4.13,19.5-8.07,0,0,14.76,3,19.36,30.76" transform="translate(-83.81 -134.86)"/>
    <path class="cls-1" d="M146.62,700.53S145,714.36,147.7,717c0,0,23.11,19,60.42,15.13,0,0,55.41-5.45,60-15.54l9.69-10.53L275,694.12l-4.63-8.86" transform="translate(-83.81 -134.86)"/>
    <path class="cls-1" d="M191.07,683.66a10.78,10.78,0,0,0,.74,3.06,17,17,0,0,0,8.35,8.91,22,22,0,0,0,12.17,2c1.77-.2,3.7-.69,4.69-2.17,1.11-1.65.65-3.88-.15-5.7a29.46,29.46,0,0,0-4.16-6.56c-1.84-2.31-4-4.58-6.75-5.55a17.61,17.61,0,0,0-4.58-.74c-1.85-.14-7.84-1.57-9.24-.36C191,677.53,191.07,682.3,191.07,683.66Z" transform="translate(-83.81 -134.86)"/>
    <path class="cls-1" d="M211.21,673.66a1.58,1.58,0,0,0,.78.58c.56.13,1.1-.42,1.18-1a3,3,0,0,0-.41-1.66c-.18-.38-.36-.76-.56-1.13a33.65,33.65,0,0,0-2.46-4c-1.58-2.2-2.44-1.54-1.88.74A17.1,17.1,0,0,0,211.21,673.66Z" transform="translate(-83.81 -134.86)"/>
    <path class="cls-1" d="M181.71,671.67a9,9,0,0,0-2.29,1.62,3.07,3.07,0,0,0-.9,2.56,6,6,0,0,0,6.18-3,.49.49,0,0,0,.08-.33.51.51,0,0,0-.27-.29,3.72,3.72,0,0,0-3.84.5,10.85,10.85,0,0,0-2.58,3.12,1.31,1.31,0,0,0-.31.89c0,.32.45.59.7.38" transform="translate(-83.81 -134.86)"/>
    <path class="cls-1" d="M189.56,679.86a1.19,1.19,0,0,0-.36,1.36,3.56,3.56,0,0,0,.87,1.22,13,13,0,0,0,2.49,2.15,4.33,4.33,0,0,0,3.16.61,22,22,0,0,0-4.84-8.05c-.56-.6-1.45-1.2-2.14-.74a1.69,1.69,0,0,0-.56.84,6.68,6.68,0,0,0,.75,5.86" transform="translate(-83.81 -134.86)"/>
    <path class="cls-1" d="M184.1,672.85c-1.41-.23-3-.39-4.07.6a3.85,3.85,0,0,0-.94,1.89,2.69,2.69,0,0,0,2.78-1.21,7.88,7.88,0,0,0,1.06-3,.42.42,0,0,0,0-.38c-.09-.12-.28-.1-.43-.07-1.46.38-2.37,1.79-3.14,3.08a1.71,1.71,0,0,0-.36,1.17c.09.4.66.7.93.39" transform="translate(-83.81 -134.86)"/>
    <path class="cls-1" d="M184.32,671.85a20.16,20.16,0,0,0-5,1.5c-.86.39-1.83,1.13-1.58,2a1.37,1.37,0,0,0,1.22.91,2.92,2.92,0,0,0,1.55-.38,7.28,7.28,0,0,0,3.12-3,4,4,0,0,0-2.57.32,2.23,2.23,0,0,0-1.21,2.18" transform="translate(-83.81 -134.86)"/>
    <path class="cls-1" d="M208.74,665.49c-1,1.13-.48,2.87.19,4.2a20.78,20.78,0,0,0,3.76,5.21,4,4,0,0,0,1.93,1.25,1.57,1.57,0,0,0,1.86-1,2.25,2.25,0,0,0-.38-1.49c-1.14-2.12-2.69-4.2-4.95-5a2.36,2.36,0,0,0-1.79,0,1.06,1.06,0,0,0-.45,1.53" transform="translate(-83.81 -134.86)"/>
    <path class="cls-1" d="M207.92,667.86c-.61,1.35-.11,2.91.48,4.26a12.55,12.55,0,0,0,3.46,5c.74.58,1.91,1,2.52.26a1.72,1.72,0,0,0,.34-1.08,6.48,6.48,0,0,0-1.59-4.21,19.18,19.18,0,0,0-3.41-3.07,2.56,2.56,0,0,0-.85-.48,1.58,1.58,0,0,0-1.77,1.31,3.06,3.06,0,0,0,.7,2.3" transform="translate(-83.81 -134.86)"/>
    <path class="cls-1" d="M316.5,691.12s-11.07,7.69,1.31,21c0,0,58.53,37.39,75.53,31,0,0,31.32,0,41.18-31.19s-.24-1.66-.24-1.66S434,696.15,429,694.6s-2-2.05-2-2.05-34.39-21.82-39.45-22.87" transform="translate(-83.81 -134.86)"/>
    <path class="cls-1" d="M310.89,701.12a20,20,0,0,0,1.39,4.81,7.09,7.09,0,0,0,1.44,2.59,7,7,0,0,0,3.14,1.5.79.79,0,0,0,.4.05c.25-.06.39-.34.46-.59.46-1.57-.19-3.23-.85-4.73-1-2.26-2.1-4.6-4.06-6.11a1.18,1.18,0,0,0-1-.34c-.49.12-.66.71-.72,1.21a13.72,13.72,0,0,0,.61,5.83" transform="translate(-83.81 -134.86)"/>
    <path class="cls-1" d="M336.67,704.24a3.18,3.18,0,0,0-1.23.09,1.14,1.14,0,0,0-.79.87,1.51,1.51,0,0,0,.5,1.12,6.61,6.61,0,0,0,1.22,1,15.5,15.5,0,0,0,4.24,1.73,2.28,2.28,0,0,0,1.56.08c1.69-.77,1-2.23-.13-3.12A9.23,9.23,0,0,0,336.67,704.24Z" transform="translate(-83.81 -134.86)"/>
    <path class="cls-1" d="M347.21,709.54a6.74,6.74,0,0,0,1.61,3.22,3.32,3.32,0,0,0,3.33.9.78.78,0,0,0,.32-.21.73.73,0,0,0,0-.58,5.57,5.57,0,0,0-1.05-2.29,2.33,2.33,0,0,0-2.25-.85,1.51,1.51,0,0,0-1.06,1.95" transform="translate(-83.81 -134.86)"/>
    <path class="cls-1" d="M425.25,691.41a7.77,7.77,0,0,0,2.59,4.3,1.16,1.16,0,0,0,.84-1.07,2.74,2.74,0,0,0-.38-1.39,8.53,8.53,0,0,0-3.29-3.42,1.92,1.92,0,0,0,.08,1.87" transform="translate(-83.81 -134.86)"/>
    <path class="cls-1" d="M403.87,679.19a7.93,7.93,0,0,1,1.85,1c.63.32,1.62.27,1.83-.41a1.06,1.06,0,0,0-.92-1.21,2.49,2.49,0,0,0-1.63.47,1.75,1.75,0,0,0-1,1.21" transform="translate(-83.81 -134.86)"/>
    <path class="cls-1" d="M404.15,678.61c.49.46.65,1.29,1.28,1.52a1,1,0,0,0,1.24-1.15,1.31,1.31,0,0,0-1.57-.93,1.48,1.48,0,0,0-.66,2.53" transform="translate(-83.81 -134.86)"/>
  </g>
  <g id="olhos">
    <path class="cls-2" d="M320.94,250.43s-9.5-7.42.91-15.11c0,0,12.4-4.78,12.57,8.49q0,.36,0,.75C334.12,258.75,323.12,252.79,320.94,250.43Z" transform="translate(-83.81 -134.86)"/>
    <path class="cls-2" d="M241.39,236.7s1.61-9.12,5.44-8.58c0,0,10.94-1.22,11.73,9.17,0,0-1.68,10.4-9.65,9C248.91,246.28,239.82,241.87,241.39,236.7Z" transform="translate(-83.81 -134.86)"/>
    <path class="cls-3" d="M328.06,238.79s-5.47-2.92-7.12,3.75c0,0-2.85,7,2.22,9.62,0,0,9.65,3,11-4.56,0,0-.78-7.39-5.24-8.36" transform="translate(-83.81 -134.86)"/>
    <path class="cls-4" d="M329.4,239.94s-6.45-5.06-7.46,2.26C321.94,242.2,328.08,248.21,329.4,239.94Z" transform="translate(-83.81 -134.86)"/>
    <path d="M245.81,238.07s1.42-7.19,7.08-3.75c0,0,5.09,2.68,2.1,10.27C255,244.59,243.94,247,245.81,238.07Z" transform="translate(-83.81 -134.86)"/>
    <path class="cls-4" d="M253.61,235.13s-6.45-5.06-7.46,2.26C246.15,237.39,252.29,243.4,253.61,235.13Z" transform="translate(-83.81 -134.86)"/>
  </g>
  <g id="roupa">
    <path class="cls-5" d="M356.58,545.94,380,540.68,378.75,565l2.22,3.8,12.76-.71,11-3.31,7.36.37,4,3.94-7.4,15c6.28,6.52,26.53-5,26.53-5-.38,21.19,8.34,30,8.34,30l7.61-30.38-5.64-36.84C473.69,552,467.44,519,467.44,519c14.62-10.5,12.37-35.16,12.37-35.16,8.81-2.72,3.66-23.62,3.66-23.62,2.72-5.16,1.7-18.56,1.7-18.56,15.12-25-7.33-36.57-7.33-36.57s-19.78,4.41,0-.84S470,371.44,470,371.44c11.91-1.69-11.66-25.42-11.66-25.42-4.54-23.91-20.4-27.53-20.4-27.53-5.16.11-23.22,6.26-23.22,6.26l-8,8.48-17.38,18.42-7.54,8-4.21,4.44" transform="translate(-83.81 -134.86)"/>
    <path class="cls-5" d="M197.28,433.22s-28.8,14.25-16.85,43.45c0,0-16.37-2.59-8.59,27.75,0,0-15.75,1.48-4.5,29.2l-4.22,20.26s5.63,8,10.88,6.44c0,0,33.59,5.3,103.77-24.43,0,0,63.48-32.64,66.48-44.45l-34.18-7.6s-8-4.11-7-11.25c0,0,.9-16.4,4.93-14.62s-.54-1.75-.54-1.75-3.38-17.85,11.28-16.72c0,0,0-14.53,7.5-16.26l11.85,2.39,2.93-4.69s7.76-6.55,19.39,0,15.91-55.27,15.91-55.27l-12.91,12.71-4.13,12-2.91-8.52L353,365.67,349.12,390l-9.94,12.56-7.39,2.71-2.17,1.51L321,415.35l-5,5.59-1.48,4.9-4.67-5.2H307l-4,6.9-2.38,1.84-6.24,9.84-6-1.82-1.81-4.18L284,434.68l-6.09,2.66" transform="translate(-83.81 -134.86)"/>
    <polyline class="cls-6" points="282.14 368.76 261.38 371.57 240.9 373.08 260.12 357.44 260.44 355.63 280.5 353.2 282.91 353.2"/>
    <path class="cls-5" d="M190.31,560.68s27.05-1.18,59.37-13.27c0,0,58.9-25.83,67.26-33.59l3.57-1.73-5.27,5.46,1.67,1.81,41.36-2.55,5.29-1-6.18,26.63s-7.32,7.87,13.5.94-1.5-2-1.5-2L390,542.81" transform="translate(-83.81 -134.86)"/>
    <path class="cls-5" d="M191.25,560.32l-.15,1.3L185.62,609s9.76,20.06,34.88,11.25c0,0,24.77-3.29,37.7,11,0,0,7.3,5.39,33.55,0,0,0,17.25-12.51,28-7.35,0,0,13.22,3.47,33.66,9.75,0,0,25.16-3.79,35.73-14.6l43.95-2.56L431.86,581" transform="translate(-83.81 -134.86)"/>
    <path class="cls-7" d="M335.21,564.89Q323.89,554.51,312,544.73" transform="translate(-83.81 -134.86)"/>
    <path class="cls-5" d="M249.78,548.87c-6.92,3.5-15.2,1.91-22.93,2.63a37.75,37.75,0,0,0-15.91,5.23c-3.23,1.95-6.38,4.73-6.94,8.46-.53,3.43,1.31,6.83,3.76,9.29,4.39,4.4,10.59,6.43,16.63,7.89,45.31,11,94.26-1.71,138.93,11.68,6.1,1.83,12.13,4.15,18.48,4.62,5.36.4,10.72-.54,16-1.47,7.47-1.32,15-2.66,22-5.58,2.29-1,4.63-2.17,5.95-4.27,1.85-2.93,1.24-6.73.37-10.08-2-7.81-5.19-15.49-10.47-21.59-8-9.25-19.87-14-31.28-18.38-5.32-2.06-10.75-4.13-16.45-4.49-6.4-.4-12.71,1.4-18.86,3.19-30.38,8.89-61.42,18.41-93,16.36a11.44,11.44,0,0,1-5-1.14c-2.18-1.25-4.06-4-6.48-3.27a5,5,0,0,0-.73,3.39" transform="translate(-83.81 -134.86)"/>
    <path class="cls-5" d="M200.83,555.31a6,6,0,0,0-2.38,5.3,14.08,14.08,0,0,0,1.81,5.75,5.92,5.92,0,0,0,2.4,2.87c2,1,4.35-.39,5.67-2.14,2.34-3.09,2.71-7.34,1.81-11.12a3.18,3.18,0,0,0-.53-1.27,3.11,3.11,0,0,0-1.64-.89,14.88,14.88,0,0,0-5.83-.39c-2.24.3-4.55,1.23-5.77,3.13s-.87,4.87,1.14,5.9" transform="translate(-83.81 -134.86)"/>
    <path class="cls-5" d="M365.93,394.7a83.55,83.55,0,0,0-9,21.79c-.76,3-1.08,6.76,1.44,8.51,1.17.81,2.67.94,3.95,1.56,4.92,2.37,4.29,10.18,8.62,13.51a39.36,39.36,0,0,0,6-19.33c.26-6.38-1-12.71-2.32-19-.38-1.83-.81-3.77-2.13-5.1a6.63,6.63,0,0,0-6.4-1.34,19.81,19.81,0,0,0-6,3.24" transform="translate(-83.81 -134.86)"/>
    <path class="cls-5" d="M372.63,434,369,436.1a2.34,2.34,0,0,1-.07,2.37l-1.43-1.84c-.78.22-.86,1.28-.77,2.09l.42,4.06a5.35,5.35,0,0,0,.48,2,1.84,1.84,0,0,0,1.67,1.06,1.81,1.81,0,0,0,1.47-1.42,4.69,4.69,0,0,0-.1-2.17,26.31,26.31,0,0,0-3.19-7.94,1.2,1.2,0,0,0-.44-.48c-.66-.33-1.21.6-1.36,1.33" transform="translate(-83.81 -134.86)"/>
    <path class="cls-5" d="M376.07,365.23a29.2,29.2,0,0,0-5.47,27.42c.81,2.5,2.63,5.29,5.24,5a5.08,5.08,0,0,0,3.22-2.06c2.35-2.89,3.11-6.72,3.79-10.39l2.55-13.62a9.27,9.27,0,0,0,.12-4.25,3.15,3.15,0,0,0-3.12-2.41c-.84.11-1.59.68-2.43.66a8.21,8.21,0,0,1-2-.58c-2.52-.68-4.71,1.76-6.19,3.92a7.75,7.75,0,0,0-1.37,2.68,2.69,2.69,0,0,0,.83,2.74" transform="translate(-83.81 -134.86)"/>
    <path class="cls-5" d="M389.1,377.08a240.19,240.19,0,0,0-29,7.67,18.77,18.77,0,0,0-6,2.86c-3.68,2.94-4.75,8-5.58,12.63-.72,4-1.34,8.48,1,11.82,2.82,4.11,8.61,4.56,13.6,4.61l21.8.2c6.27.06,12.68.1,18.63-1.87,13.1-4.35,21.55-18.26,22.1-32.06a15.29,15.29,0,0,0-1.19-7.47c-2-4-6.49-5.93-10.77-7.05-9.92-2.6-20.35-2.25-30.6-1.89a11.67,11.67,0,0,0-5.65,1.17c-1.67,1-2.76,3.25-1.84,5" transform="translate(-83.81 -134.86)"/>
    <path class="cls-5" d="M400.55,370.6c-8.13-.32-16.1,2.75-22.9,7.19S365,388,359.29,393.77c-3.11,3.12-6.3,6.34-8,10.4s-1.53,9.23,1.56,12.36c2.64,2.65,6.64,3.26,10.35,3.73,9.83,1.23,20.14,2.41,29.37-1.18,4.72-1.84,8.89-4.84,13-7.81l18.63-13.45c3.67-2.65,7.46-5.43,9.65-9.39,1.56-2.82,2.16-6.43.54-9.21a12,12,0,0,0-3.23-3.33,57.12,57.12,0,0,0-38-11.59" transform="translate(-83.81 -134.86)"/>
    <path class="cls-5" d="M355.78,417.05a10.29,10.29,0,0,0,4.9,1.86c13.66,2.43,27.89.07,40.76-5.13s24.48-13.11,35.19-21.94c3.74-3.08,7.77-7.44,6.44-12.11-.68-2.39-2.66-4.17-4.7-5.58-15.06-10.4-47.26-13.1-61.74-.36-5.88,5.17-9.78,12.17-15.78,17.37S347.35,410,355.78,417.05Z" transform="translate(-83.81 -134.86)"/>
  </g>
  <g id="corpo">
    <path class="cls-8" d="M227.68,199.5s5.93-40.41,46.56-60.28c0,0,76.47-23.68,112.13,50.22,0,0-13.37-2.8-17.4,3.49,0,0-2.72,51.21,0,67l-14.51-47.39-5-9.37-7.84-7.44-10.91-2.8-14.16,2.8-9.45,9.77L300.24,216l-5.06,4.12h-5l-.94-7.58v-4.88L288,224.25l-5.24-9.82-3-5.7v6.66l-2.25,3-3.09,1.78-5.69-3.18-10.54-19.17-8.67-4.84-8.68,1.39-10.06,3.45-4.46,1.73" transform="translate(-83.81 -134.86)"/>
    <path class="cls-8" d="M236.06,291.19s-10.5.84-13.31-23.07l3.94-51.18s4.51,4.69,17.58-4.4c0,0,12.11,4.24,16.53,9.52l-2,2.48-7.22-4.42-10.35,4.07-6.45,7.24-.52,7.89,2.48,5.27,5.07,4.13,13.66,1,6.49-3.35h1.57l-1.38,7.71L256.88,258l-7,6.51v10.32l3,5.39-1.34.18-10.35,5.35-6.45,6.62" transform="translate(-83.81 -134.86)"/>
    <path class="cls-8" d="M264.42,241.49l50.42,12.61s9.51,4.69,25.26-1.5l1.69-24.25,7.84-4.9,4.31,2.6,7,3.68,9.31,11.76v18.67S368.7,295.54,332,292.35c0,0-15.8-19.36-26.36-13.69l-1.61-11.94-16.28-2.39-2.9.72,5.71-33.4-10.69-4.49-5.9,1.19-6.3,8.76-3.29,7-2.7,8.44-3.93,7.56-10,7.23L250,277.65c4.36,4.86,17.67,13.2,17.67,13.2l7.14-.84,3.94-1.13" transform="translate(-83.81 -134.86)"/>
    <path class="cls-8" d="M280.42,287.2l-.3-3.32h4.95a38.43,38.43,0,0,0,12.57-2.54l-1.2-13.22-5.35-4-8.34-6.62-10.87-1.92-8.38-.15V267.9l4.76,13.44,6.24,4.41" transform="translate(-83.81 -134.86)"/>
    <path class="cls-8" d="M270.28,239.32l-3.48,2-1.3,11.11,3.59,6.37,15.72,1.18,14.72-4.37H313s-5.51-10.47-6.55-16c0,0-1.13-7.67,2.91-9.71,0,0,3.92-5.72,7.58-6.66s25,6.28,25,6.28l6.71-6.28L340.15,216l-13.62-3s-15.07,2.4-20,15.12-4.6,2.6-4.6,2.6-6.94,1.7-9.43-1.46" transform="translate(-83.81 -134.86)"/>
    <line class="cls-8" x1="195.43" y1="85.26" x2="181.69" y2="89.68"/>
    <path class="cls-8" d="M249.13,312.78s3.71,35.94,28.75,21.8c0,0,28.17-5.45,31.51-10.58" transform="translate(-83.81 -134.86)"/>
    <path class="cls-8" d="M304.85,309.84l19.71,7.26c-13.79,31.82-36.16,17.48-36.16,17.48" transform="translate(-83.81 -134.86)"/>
    <polyline class="cls-8" points="165.32 179.24 176.99 172.97 182.99 183.3"/>
    <path class="cls-8" d="M273.92,236.86c2.45-1,5.2-1.36,7.35-2.9a8,8,0,0,0,2.58-3.13A4.45,4.45,0,0,0,284,227c-1.77-3.33-8.52-2.31-11.54-2.4-3.36-.1-7.47-.6-9.33,2.91s.58,7.85,1.82,11.05c1.11,2.86.86,3,3.35,1.81C270.29,239.41,271.79,237.66,273.92,236.86Z" transform="translate(-83.81 -134.86)"/>
    <path class="cls-8" d="M280.78,215.57a10.55,10.55,0,0,0,.05,6.17A9.26,9.26,0,0,0,283,226.1a4.26,4.26,0,0,0,4.51,1.12,4.36,4.36,0,0,0,2.31-4.21,10.75,10.75,0,0,0-1.64-4.77,39.57,39.57,0,0,0-5.59-7.75,7,7,0,0,0-3.22-2.26,2.79,2.79,0,0,0-3.33,1.47,3.91,3.91,0,0,0,.33,2.65,41.77,41.77,0,0,0,8.92,14" transform="translate(-83.81 -134.86)"/>
    <path class="cls-8" d="M280.13,224.26a6.76,6.76,0,0,0-1.81,1.47,3.35,3.35,0,0,0,4.55-1.39,4.2,4.2,0,0,0-1.08-4.87,3.15,3.15,0,0,0-3-.77,4.07,4.07,0,0,0-2.16,2.92,5.83,5.83,0,0,0-.13,3.64,2.59,2.59,0,0,0,2.89,1.75" transform="translate(-83.81 -134.86)"/>
    <path class="cls-8" d="M282.12,225.65a27.23,27.23,0,0,0,1.6,6.65,5.9,5.9,0,0,0,1.17,2.09,3.77,3.77,0,0,0,4.63.33,5,5,0,0,0,2-4.37,4.61,4.61,0,0,0-1.32-3,3.14,3.14,0,0,0-3.15-.72,3.31,3.31,0,0,0-1.85,3.66,5.7,5.7,0,0,0,2.54,3.52" transform="translate(-83.81 -134.86)"/>
    <path class="cls-8" d="M303.21,228.23a4.84,4.84,0,0,0-2.3,3.57,14,14,0,0,0,.2,4.38c.08.56.23,1.21.75,1.45a1.64,1.64,0,0,0,1.11,0,10.4,10.4,0,0,0,6.6-6.09,5.32,5.32,0,0,0,.32-3.55,2.82,2.82,0,0,0-2.67-2.06c-1.82.11-2.71,2.22-3.19,4l-1.23,4.47" transform="translate(-83.81 -134.86)"/>
    <path class="cls-8" d="M354.71,220.89,353,227a3.26,3.26,0,0,0-.16,1.66,2.16,2.16,0,0,0,1.9,1.4,6.44,6.44,0,0,0,2.45-.41,5,5,0,0,0,3-1.74,4.76,4.76,0,0,0,.49-2.72c0-1.58-.25-3.34-1.47-4.34a3.08,3.08,0,0,0-4.58,1.14" transform="translate(-83.81 -134.86)"/>
    <path class="cls-8" d="M290.59,261.5c-2.23,1.16-2.42,4.23-2.31,6.74l.37,8.56a13.16,13.16,0,0,0,.57,3.95,4.45,4.45,0,0,0,2.65,2.82,5.06,5.06,0,0,0,4-.78c1.21-.74,2.26-1.72,3.49-2.42,2.09-1.21,4.79-1.72,6-3.78a5.47,5.47,0,0,0,.18-4.71,16.11,16.11,0,0,0-2.61-4.1c-1.49-1.89-3.19-3.91-5.55-4.36s-4.64.79-6.7,2c-1.54.89-3.09,1.78-4.61,2.71a5.44,5.44,0,0,0-2,1.74,2,2,0,0,0,.22,2.46" transform="translate(-83.81 -134.86)"/>
    <path class="cls-8" d="M301,281.36c1.69-1.47,2.86-3.87,2.05-5.95a.6.6,0,0,0-1-.28c-2.23,1.09-6.74,3.25-6.82,6.3C295.11,285.2,299.18,283,301,281.36Z" transform="translate(-83.81 -134.86)"/>
    <path class="cls-8" d="M290,283.75a2.35,2.35,0,0,0,1.06-1.29s0,0,0-.06a1.72,1.72,0,0,0-1.36-1.79C287,279.89,286.18,286.37,290,283.75Z" transform="translate(-83.81 -134.86)"/>
    <path class="cls-8" d="M277.05,287.85a4.33,4.33,0,0,1,2.55-.4,1.87,1.87,0,0,0,.88,0A1.27,1.27,0,0,0,281,287a4.25,4.25,0,0,0-.34-5.33,5.41,5.41,0,0,0-4.13,4.48" transform="translate(-83.81 -134.86)"/>
    <path class="cls-8" d="M282.11,280.78a9.18,9.18,0,0,0-.4,3,9.84,9.84,0,0,0,4.82.78,2.38,2.38,0,0,0,2-1,1.78,1.78,0,0,0-1.11-2.26,4.23,4.23,0,0,0-2.78.16c-2,.66-4.21,2.24-4,4.38" transform="translate(-83.81 -134.86)"/>
    <path class="cls-8" d="M253.61,256.55a39.07,39.07,0,0,0-4.48,15.8,9,9,0,0,0,5.87-1.59,18.41,18.41,0,0,0,4.4-4.32,13.57,13.57,0,0,0,2.8-5.3,6,6,0,0,0-1.47-5.58,5.56,5.56,0,0,0-5.66-.85,9.17,9.17,0,0,0-4.39,4,11.66,11.66,0,0,0-1.64,7.78" transform="translate(-83.81 -134.86)"/>
    <path class="cls-8" d="M264.4,242.84a10,10,0,0,0-3.4,8.24,1.94,1.94,0,0,0,.38,1.18c.58.66,1.66.4,2.43,0a9.6,9.6,0,0,0,4.29-11.16,1.5,1.5,0,0,0-.6-.88c-.67-.37-1.42.35-1.81,1a13.94,13.94,0,0,0-1.95,7.8" transform="translate(-83.81 -134.86)"/>
    <path class="cls-8" d="M262.13,225.35a8.34,8.34,0,0,1-3.11-1l1.23,3.11c.66,1.67,1.78,3.65,3.57,3.52a3.82,3.82,0,0,0-.63-6.06,4,4,0,0,1-1.51-.9c-.29-.38-.37-.9-.73-1.21-.68-.58-1.8.13-1.95,1a3.85,3.85,0,0,0,.77,2.49" transform="translate(-83.81 -134.86)"/>
    <path class="cls-8" d="M262.36,223.69l.23,2.84a3.84,3.84,0,0,0,2,.11,1.33,1.33,0,0,0,1-1.56,1.29,1.29,0,0,0-1.88-.48,2.76,2.76,0,0,0-1.05,1.9" transform="translate(-83.81 -134.86)"/>
    <path class="cls-8" d="M294.74,319c-.8.5-1.78.65-2.61,1.09s-1.55,1.44-1.17,2.31a2,2,0,0,0,.54.67A4.51,4.51,0,0,0,299,319.7a5.77,5.77,0,0,0-6.4.8" transform="translate(-83.81 -134.86)"/>
    <path class="cls-8" d="M283.46,331.38l-2.66,3.3,4.43-.5c2.06-.23,4.28-.54,5.77-2a1.25,1.25,0,0,0,.47-1.05,1.22,1.22,0,0,0-.58-.69,5.5,5.5,0,0,0-4.57-.49,9.64,9.64,0,0,0-3.92,2.6" transform="translate(-83.81 -134.86)"/>
    <path class="cls-8" d="M303.32,339a19.54,19.54,0,0,0,6.13-3.24,3.81,3.81,0,0,0,1.43-1.47,1.35,1.35,0,0,0-.55-1.77,1.9,1.9,0,0,0-1.22.07c-2.91.86-5.79,2.39-8.88,2.48-1.72,0-6.78-2.21-8.1-.89C288,338.31,301.61,339.46,303.32,339Z" transform="translate(-83.81 -134.86)"/>
    <path class="cls-8" d="M309.1,328.87q-1,4.25-2,8.5c-.1.45-.14,1.05.28,1.25a.8.8,0,0,0,.59,0,4,4,0,0,0,2-1.86c1.54-2.32,3.12-4.75,3.46-7.51a5.22,5.22,0,0,0-3.45,2.57" transform="translate(-83.81 -134.86)"/>
    <path class="cls-8" d="M311,318l4.46.44a5.18,5.18,0,0,0,3.63-.52,2.67,2.67,0,0,0,0-4.08,4.68,4.68,0,0,0-1.29-.63c-2.55-.94-11-4.55-12.93-1.77C302.21,315.14,308.51,317.71,311,318Z" transform="translate(-83.81 -134.86)"/>
    <path class="cls-8" d="M240.53,287.42a18.45,18.45,0,0,1,9.79-5.24c.64-.12,1.47-.43,1.39-1.08a1.06,1.06,0,0,0-.37-.61c-3.36-3.14-10.46,1.83-13.81,3.34s-5.62,3.93-5.74,7.84C236,293.73,237.89,290.14,240.53,287.42Z" transform="translate(-83.81 -134.86)"/>
    <path class="cls-8" d="M302.39,239.38a6.68,6.68,0,0,0,.59,2.5,2.24,2.24,0,0,0,2.07,1.28,1.73,1.73,0,0,0,.8-.3,3.5,3.5,0,0,0,1.21-1.61C310.53,232.92,301.9,234.39,302.39,239.38Z" transform="translate(-83.81 -134.86)"/>
    <path class="cls-8" d="M314.16,222.39a5,5,0,0,0-3.68,2.45,12.21,12.21,0,0,0-1.46,4.32,6.93,6.93,0,0,0,7.05-2.6,9.07,9.07,0,0,1,.92-1.22,5.23,5.23,0,0,1,2.12-1l3.9-1.2c.33-.1.72-.29.71-.63a.72.72,0,0,0-.22-.44c-1.39-1.56-3.85-1.35-5.91-1-2.85.47-6.08,1.2-7.47,3.73" transform="translate(-83.81 -134.86)"/>
    <path class="cls-8" d="M335.19,224.57l3.23,5.67a5.24,5.24,0,0,0,2.51,2.65.67.67,0,0,0,.5,0c.29-.12.34-.5.32-.81-.18-3.49-3.25-6-6.05-8.13a1.07,1.07,0,0,0-.72-.29c-.25,0-.44.42-.23.57" transform="translate(-83.81 -134.86)"/>
    <path class="cls-8" d="M328.74,211.57c-.52.9-1.58,1.31-2.36,2s-1.24,2.06-.4,2.68a2.48,2.48,0,0,0,.85.31l8.07,1.72c1.13.24,2.54.37,3.21-.57.79-1.13-.25-2.65-1.39-3.42-2.24-1.51-5-2-7.63-2.53-.73-.13-1.62-.21-2.06.38a.93.93,0,0,0,.64.58" transform="translate(-83.81 -134.86)"/>
    <path class="cls-8" d="M355.62,216.47a4.31,4.31,0,0,0,.93,5.86.81.81,0,0,0,.51.18c.32,0,.47-.41.52-.73a4.08,4.08,0,0,0-2.56-4.29,4.22,4.22,0,0,0-.37,2" transform="translate(-83.81 -134.86)"/>
    <path class="cls-8" d="M283.77,227.62c-.42,1.09-1.7,1.8-1.8,3a3.19,3.19,0,0,0,1,2.16,12.39,12.39,0,0,0,3.51,3A5,5,0,0,0,291,236a4.85,4.85,0,0,0,2.38-4.84,9.08,9.08,0,0,0-2.54-5.05,16.54,16.54,0,0,0-4.17-3.32,3.88,3.88,0,0,0-3.38-.57,3.52,3.52,0,0,0-1.59,1.88c-1.82,4.19,0,9.23,3.19,12.54" transform="translate(-83.81 -134.86)"/>
    <path class="cls-8" d="M303.78,229.94a5.77,5.77,0,0,0-3,6.38,7.52,7.52,0,0,0,5-5.37,1.19,1.19,0,0,0,0-.89,1,1,0,0,0-.65-.39,2.76,2.76,0,0,0-2.46.45,2.07,2.07,0,0,0-.65,2.33" transform="translate(-83.81 -134.86)"/>
    <path class="cls-8" d="M308,232.74a4.85,4.85,0,0,0-1.36,4.38,5.36,5.36,0,0,0,1.66-5.6,8.43,8.43,0,0,0-3.16,3.7" transform="translate(-83.81 -134.86)"/>
    <path class="cls-8" d="M310.05,226.68a3.68,3.68,0,0,0-1.17,1.76,1.3,1.3,0,0,0,1,1.6,1.87,1.87,0,0,0,1.25-.68,2.67,2.67,0,0,0,1-1.54c.12-1.21-1.53-2-2.65-1.5a5.45,5.45,0,0,0-2.37,2.71l.85.56" transform="translate(-83.81 -134.86)"/>
    <path class="cls-8" d="M265.86,239.89a4.12,4.12,0,0,0-2,5c.25.63.84,1.27,1.5,1.09a1.41,1.41,0,0,0,.8-.77,4.85,4.85,0,0,0-1-5.77,1.25,1.25,0,0,0-1-.41,1,1,0,0,0-.62,1.28,2.81,2.81,0,0,0,1,1.26" transform="translate(-83.81 -134.86)"/>
    <path class="cls-8" d="M264.66,239.16l.09,2.88a1.84,1.84,0,0,0,2.61-.66,2.78,2.78,0,0,0-.28-2.89,6.12,6.12,0,0,0-2.4-1.86c-1,0-1.57,1.32-1.22,2.26a4.87,4.87,0,0,0,2.1,2.09" transform="translate(-83.81 -134.86)"/>
    <path class="cls-8" d="M269.73,216.37a12.25,12.25,0,0,0,1.12,3l5.67-.14a5.55,5.55,0,0,0,2.26-.38,1.87,1.87,0,0,0,1.16-1.82,1.81,1.81,0,0,0-1.75-1.41,4.16,4.16,0,0,0-2.3.71,13.59,13.59,0,0,0-3.13,2.52" transform="translate(-83.81 -134.86)"/>
    <path class="cls-8" d="M269.74,218.35a2.86,2.86,0,0,0,.57,1.91c1.57.28,3.63.31,4.26-1.15s-.93-3-2.39-2.77a3.41,3.41,0,0,0-2.67,3.12" transform="translate(-83.81 -134.86)"/>
    <path class="cls-8" d="M287.38,285.53c.92-.34,1.75-.88,2.68-1.18,2.06-.67,4.31,0,6.46-.34a1.24,1.24,0,0,0,.77-.31.89.89,0,0,0-.16-1.19,2,2,0,0,0-1.24-.42c-2.28-.18-4.47.81-6.74,1.1-1.2.15-2.42.1-3.64.17a17.57,17.57,0,0,0-3.45.54c-1.28.35-1.13.68,0,1.27A6.63,6.63,0,0,0,287.38,285.53Z" transform="translate(-83.81 -134.86)"/>
    <path class="cls-8" d="M302.09,266.29a2,2,0,0,0-.59,2.2,2.06,2.06,0,0,0,.81,1.25,1.44,1.44,0,0,0,2-.58,2.37,2.37,0,0,0-.61-2.4,7,7,0,0,0-1.11-1.07,1.35,1.35,0,0,0-1-.37,1.2,1.2,0,0,0-.78.76,3.13,3.13,0,0,0-.22,1.86" transform="translate(-83.81 -134.86)"/>
    <path class="cls-8" d="M276.21,287a.87.87,0,0,0,.89.46,4.83,4.83,0,0,1,1.07-.05,3.27,3.27,0,0,1,.73.29,2.88,2.88,0,0,0,2.53,0,2.07,2.07,0,0,0,1.08-2.19" transform="translate(-83.81 -134.86)"/>
    <path class="cls-8" d="M277.28,287.88a4.22,4.22,0,0,0,3.7-.16.33.33,0,0,1,.16.37" transform="translate(-83.81 -134.86)"/>
    <path class="cls-8" d="M277.42,287.25a1.18,1.18,0,0,0,2.25.21,1.38,1.38,0,0,0-1.31-.51,1.35,1.35,0,0,0-1,.95" transform="translate(-83.81 -134.86)"/>
    <path class="cls-8" d="M281.06,284.43l-.72,1a1.27,1.27,0,0,0,1.11.15c.35-.16.49-.73.16-.94" transform="translate(-83.81 -134.86)"/>
    <path class="cls-8" d="M269.27,215.55a2.51,2.51,0,0,0-.28,2.67c.24.46.84.88,1.27.58a1,1,0,0,0,.29-1,4.21,4.21,0,0,0-1.18-2.49.5.5,0,0,0-.22-.16c-.23-.07-.44.19-.5.43a1.5,1.5,0,0,0,.12,1.08" transform="translate(-83.81 -134.86)"/>
    <path class="cls-8" d="M276.19,218.93a5.31,5.31,0,0,0-2.22.89,1,1,0,0,0,.86.58,2.88,2.88,0,0,0,1.08-.21l1.24-.41a1,1,0,0,0,.67-.46c.18-.44-.36-.88-.83-.83a3,3,0,0,0-1.25.64,1.2,1.2,0,0,0-.47.42c-.1.2,0,.49.18.52" transform="translate(-83.81 -134.86)"/>
    <path class="cls-8" d="M276.08,223.28l-1.71.9a.75.75,0,0,0-.41.37c-.13.36.34.68.72.6a3,3,0,0,0,1-.58,1.25,1.25,0,0,0,.39-.33.49.49,0,0,0-.11-.67.41.41,0,0,0-.6.23" transform="translate(-83.81 -134.86)"/>
    <path class="cls-8" d="M276.37,223.77l-1.1.69a.91.91,0,0,0,1.76.26.62.62,0,0,0,0-.58.62.62,0,0,0-.31-.22.9.9,0,0,0-1.12.8" transform="translate(-83.81 -134.86)"/>
    <path class="cls-8" d="M260.77,223.58a2.78,2.78,0,0,0,1.78,1.86,1.31,1.31,0,0,0,.83,0,.66.66,0,0,0,.48-.62c0-.4-.46-.62-.84-.73a6.8,6.8,0,0,0-1.74-.28.48.48,0,0,0-.39.1c-.09.1,0,.32.11.3" transform="translate(-83.81 -134.86)"/>
    <path class="cls-8" d="M237.64,215.61c-.49.28-1.07.79-.8,1.29a1.58,1.58,0,0,0,1.45.38,9.94,9.94,0,0,0,1.47-.53c2.25-.84,4.77-.34,7.1.26q3.25.84,6.44,1.9a2.42,2.42,0,0,0,1.09.17c.92-.17,1.22-1.47.75-2.28a4.46,4.46,0,0,0-2.26-1.59l-4.29-1.83c-1.57-.67-3.33-1.43-5-.88A36,36,0,0,0,237.64,215.61Z" transform="translate(-83.81 -134.86)"/>
    <path class="cls-8" d="M296.1,221.53a15.8,15.8,0,0,0,5.19-4.58,4.35,4.35,0,0,0,.89-1.43,12,12,0,0,0,.25-1.22,13.39,13.39,0,0,1,1.52-2.93,3,3,0,0,0,.16-3.13.94.94,0,0,0-.81-.45,1.15,1.15,0,0,0-.53.23L295,213c-1.8,1.17-5.19,2.89-4.65,5.5C290.93,221.43,293.44,222.82,296.1,221.53Z" transform="translate(-83.81 -134.86)"/>
    <path class="cls-8" d="M300.82,214.31a16,16,0,0,1-.4,1.55c-.09.53.09,1.19.6,1.34a1,1,0,0,0,1-.41,3.27,3.27,0,0,0,.45-1c1.18-3.8,3.55-7.09,5.7-10.44a2.46,2.46,0,0,0,.52-1.39c0-.5-.51-1-1-.85a1.22,1.22,0,0,0-.44.31l-2.56,2.41a9.32,9.32,0,0,0-1.26,1.33,9.89,9.89,0,0,0-1.2,2.44,14.17,14.17,0,0,0-1.12,4,3.4,3.4,0,0,1-.21,1.15,3.06,3.06,0,0,0-.42.85c0,.32.33.68.57.47" transform="translate(-83.81 -134.86)"/>
    <path class="cls-8" d="M312.65,195.28a21.07,21.07,0,0,1-3.23,3.93,11.42,11.42,0,0,0-2.67,2.61c-.62,1.09-.46,2.77.7,3.25a2.18,2.18,0,0,0,1.94-.3,6.56,6.56,0,0,0,1.44-1.44,71.74,71.74,0,0,1,5.44-5.86,5.75,5.75,0,0,1,2.09-1.45c.94-.31,2.21-.29,2.58-1.21-.62-.79-1.85-.57-2.79-.24q-2.85,1-5.58,2.22" transform="translate(-83.81 -134.86)"/>
    <path class="cls-8" d="M318.47,193.88a20.2,20.2,0,0,0-1.81,1.89,2.22,2.22,0,0,0-.52.87.84.84,0,0,0,.28.92,4.84,4.84,0,0,0,2.55-1.2,1.62,1.62,0,0,0,.63-1.7,1.1,1.1,0,0,0-1.45-.5,1.49,1.49,0,0,0-.8,1.4" transform="translate(-83.81 -134.86)"/>
    <path class="cls-8" d="M305.66,227.11a1.06,1.06,0,0,0,.43.76,1.29,1.29,0,0,0,1.38-.26C309.7,225.93,305.14,223.9,305.66,227.11Z" transform="translate(-83.81 -134.86)"/>
    <path class="cls-8" d="M310.41,229a4.55,4.55,0,0,0-1.48.5,3.11,3.11,0,0,0-.1,1.6,1.47,1.47,0,0,0,1.05,1.11,1.76,1.76,0,0,0,.87-1.4,3.59,3.59,0,0,0-.3-1.68.75.75,0,0,0-.16-.29c-.28-.29-.76-.06-1.08.17a1.29,1.29,0,0,0-.5.51.47.47,0,0,0,.19.62" transform="translate(-83.81 -134.86)"/>
    <path class="cls-8" d="M308.06,223.31a5.29,5.29,0,0,0-1.59,2.41,2.35,2.35,0,0,0-.13,1.14,1.17,1.17,0,0,0,.68.87,1.43,1.43,0,0,0,1.39-.47,3.18,3.18,0,0,0,.92-2.26,1.35,1.35,0,0,0-.61-1.25,1.13,1.13,0,0,0-.77-.07,1.64,1.64,0,0,0-1.13.92,1.36,1.36,0,0,0,.23,1.41" transform="translate(-83.81 -134.86)"/>
    <path class="cls-8" d="M319.69,223.46a3,3,0,0,0-3,2.36c1.38.07,2.5-1.19,3.87-1.37.48-.06,1,0,1.45,0a1.28,1.28,0,0,0,1.12-.79,3.23,3.23,0,0,0-3.52.06c-.26.19-.5.42-.77.6a5.87,5.87,0,0,1-1.34.63" transform="translate(-83.81 -134.86)"/>
    <path class="cls-8" d="M336.84,227.25l-.66.5a2.79,2.79,0,0,0,2.34,1.95,1.6,1.6,0,0,0-.38-1.33,4.35,4.35,0,0,0-1.11-.89,1.72,1.72,0,0,0-.79-.31.61.61,0,0,0-.64.45c0,.34.3.58.59.75" transform="translate(-83.81 -134.86)"/>
    <path class="cls-8" d="M358.14,228a14.58,14.58,0,0,0,.28,2.09,1.71,1.71,0,0,0,1.47,1.31.83.83,0,0,0,.53-.18,1.3,1.3,0,0,0,.19-1.22,4,4,0,0,0-.63-1.77,2.2,2.2,0,0,0-2.5-.65,1.11,1.11,0,0,0-.63.51,1.08,1.08,0,0,0-.11.53,2.22,2.22,0,0,0,.83,1.72" transform="translate(-83.81 -134.86)"/>
    <path class="cls-8" d="M333.59,255.88a24.92,24.92,0,0,0,3.29-.77,8.06,8.06,0,0,0,2.17-.94,3.52,3.52,0,0,0,1.44-1.83c.17-.59,0-1.41-.59-1.56s-1.12.49-1.61.91c-1.67,1.46-4,1.3-5.91,2-.55.19-1.84,1-1.84,1.68C330.53,256.41,332.91,256,333.59,255.88Z" transform="translate(-83.81 -134.86)"/>
    <path class="cls-8" d="M263.55,235.72a3.37,3.37,0,0,0-.37,1.15,1.17,1.17,0,0,0,.43,1.07.72.72,0,0,0,1-.22,1,1,0,0,0,.06-.47,3.18,3.18,0,0,0-.64-1.68.6.6,0,0,0-.27-.23.42.42,0,0,0-.48.3,1.06,1.06,0,0,0,0,.61" transform="translate(-83.81 -134.86)"/>
    <path class="cls-8" d="M368.85,191.09a8,8,0,0,0-1.18,3.63c-.05.58.22,1.37.78,1.26a1,1,0,0,0,.55-.44l2.4-3.18a12.73,12.73,0,0,1,1.59-1.84,6.31,6.31,0,0,1,2.09-1.23c2-.73,4.26-.39,6.38,0l5.56.9a5.32,5.32,0,0,0-4.23-2.84,12.32,12.32,0,0,0-5.23.71,32,32,0,0,1-5.14,1.38,8,8,0,0,0-3,.64,1.92,1.92,0,0,0-.9,2.59c.05.07.14.14.21.1s0-.18-.07-.1" transform="translate(-83.81 -134.86)"/>
    <path class="cls-8" d="M374.45,187c-.79.57-1.66,1.27-1.72,2.25a.59.59,0,0,0,.23.59.68.68,0,0,0,.32.06,15.68,15.68,0,0,0,2.07-.6c.35-.07.71-.06,1.06-.1a4.53,4.53,0,0,0,1.65-.47,1,1,0,0,0,.42-.36.67.67,0,0,0-.11-.71,1.83,1.83,0,0,0-.61-.45,2.74,2.74,0,0,0-2.18-.43,2.48,2.48,0,0,0-1.33,1.88" transform="translate(-83.81 -134.86)"/>
    <path class="cls-8" d="M374,188a2,2,0,0,0-1.05,1.73,1.15,1.15,0,0,0,.73,1.16c.55.13,1-.37,1.59-.53a6.16,6.16,0,0,1,.75-.11,5.9,5.9,0,0,0,3-1.81c.11-.1.23-.23.2-.38a.37.37,0,0,0-.13-.2,2.88,2.88,0,0,0-1.44-.62,5.61,5.61,0,0,0-3.17.25,3.81,3.81,0,0,0-2.2,2.23" transform="translate(-83.81 -134.86)"/>
    <path class="cls-8" d="M346.18,151.12a77.47,77.47,0,0,1,11.5,10.1c1.8,2.06,3.37,4.3,5.21,6.32,1.47,1.63,3.11,3.11,4.74,4.59q8.26,7.53,16.29,15.32a3.46,3.46,0,0,0,1.36,1,1.19,1.19,0,0,0,1.43-.54,1.71,1.71,0,0,0-.21-1.35c-1.55-3.36-3.27-6.64-5-9.91l-2.14-4.09a20.58,20.58,0,0,0-1.15-2c-.48-.69-1-1.31-1.58-2-1.9-2.21-3.57-4.62-5.52-6.79a18.52,18.52,0,0,0-7-5.17" transform="translate(-83.81 -134.86)"/>
    <path class="cls-8" d="M348.89,149.69c1.77,1.61,3.13,3.65,5,5.2a25.12,25.12,0,0,0,5.89,3.33c1.59.71,3.46,1.42,5,.64a1.92,1.92,0,0,0,1.15-1.7,2.57,2.57,0,0,0-.32-.93c-1.77-3.37-5.38-5.34-8.95-6.66a7.23,7.23,0,0,1-1.48-.65,9.4,9.4,0,0,1-1-.77,22.39,22.39,0,0,0-4-2.54c-1-.51-2.5-1.56-3.64-1.58a1.58,1.58,0,0,0-1.35,2.46C346,147.79,347.76,148.67,348.89,149.69Z" transform="translate(-83.81 -134.86)"/>
    <path class="cls-8" d="M367.46,158.73a1.42,1.42,0,0,0,.3-.25.26.26,0,0,0,.09-.17.34.34,0,0,0-.11-.24c-.58-.64-1.58-1.33-2.08,0C365.21,159.13,366.72,159.18,367.46,158.73Z" transform="translate(-83.81 -134.86)"/>
    <path class="cls-8" d="M365,156.49a4.45,4.45,0,0,0-2.05.18,5.66,5.66,0,0,0,1.76,2.69,1.76,1.76,0,0,0,1.83.45c.67-.36.71-1.32.53-2.06a3.61,3.61,0,0,0-1.25-2.1,1,1,0,0,0-.44-.19,1,1,0,0,0-.42.08,4.8,4.8,0,0,0-1.32.75c-.21.17-.43.42-.33.67s.53.3.84.24" transform="translate(-83.81 -134.86)"/>
    <path class="cls-8" d="M317.62,136l-1.36.33a1.7,1.7,0,0,0,1,1.57,5.37,5.37,0,0,0,1.86.52,31.56,31.56,0,0,1,4.89,1.24c4.24,1.46,8.13,3.83,12.39,5.24,1.5.49,3,.87,4.55,1.24l6,1.48a.83.83,0,0,0,.44,0,.69.69,0,0,0,.37-.63,3.64,3.64,0,0,0-.59-1.94,5.77,5.77,0,0,0-1.26-1.81,5.83,5.83,0,0,0-2-1L340,141a39.13,39.13,0,0,0-8.87-2.24,16.77,16.77,0,0,1-2.44-.3c-.67-.16-1.3-.43-2-.61a16.78,16.78,0,0,0-3.25-.38,39,39,0,0,1-8.1-1.4l1.2,1.75" transform="translate(-83.81 -134.86)"/>
    <path class="cls-8" d="M225.71,229.15a19.7,19.7,0,0,0-4.4-5,7.59,7.59,0,0,0-2.27-1.35,9.39,9.39,0,0,0-3.26-.27,43.53,43.53,0,0,0-6.55.55,16.18,16.18,0,0,0-6.68,2.78,10.75,10.75,0,0,0-4.09,5.86,17.31,17.31,0,0,0-.38,2.36,37.25,37.25,0,0,0-.18,10c.18,1.17.46,2.31.74,3.45l1.1,4.44a36.62,36.62,0,0,0,1.2,4.08,16.85,16.85,0,0,0,9.21,9.34c.61.25,1.23.46,1.82.75s1.11.62,1.7.85c2.34.9,5.08-.18,7.44.68a3.65,3.65,0,0,0,.64.2,1.69,1.69,0,0,0,1.67-1.18,5.37,5.37,0,0,0,.14-2.19,59.81,59.81,0,0,1,.17-10.87c.18-1.68.43-3.35.58-5a35.23,35.23,0,0,0,0-7.26,10,10,0,0,1-.08-3.14c.13-.64.41-1.24.52-1.89a10.7,10.7,0,0,0-.23-3.23,12.56,12.56,0,0,1,.46-5.38l-.61.84" transform="translate(-83.81 -134.86)"/>
    <path class="cls-8" d="M225.52,241.92c.1.29.34.64.62.52a.56.56,0,0,0,.22-.24,4.85,4.85,0,0,0,.32-2.95,39.7,39.7,0,0,0-1-5.19c-.14-.55-.62-3.49-1.23-3.5s-.93,1.94-1,2.35C223.25,235.8,224.58,239.23,225.52,241.92Z" transform="translate(-83.81 -134.86)"/>
    <path class="cls-8" d="M223.2,232.59a21,21,0,0,0-.07,6.33,18.4,18.4,0,0,0,1,5.17.75.75,0,0,0,.37.46.5.5,0,0,0,.57-.3,1.46,1.46,0,0,0,.08-.69,60.79,60.79,0,0,0-1.14-9.12,2.54,2.54,0,0,0-1,1.08" transform="translate(-83.81 -134.86)"/>
    <path class="cls-8" d="M222.3,227.53a8.7,8.7,0,0,0,.75,4.79c.34.76.89,1.57,1.72,1.63a1.71,1.71,0,0,0,1.64-1.5,3.88,3.88,0,0,0-.54-2.34c-.3-.6-.83-1.25-1.48-1.12a1.12,1.12,0,0,0-.8,1,2.61,2.61,0,0,0,.3,1.3" transform="translate(-83.81 -134.86)"/>
    <path class="cls-8" d="M216.56,267.76c.48.25,1.05.28,1.55.5a3,3,0,0,0,.76.34,1.55,1.55,0,0,0,.48,0l.85-.08,1.17-.12c.16,0,.36-.06.43-.21s-1.82-1.59-2.13-1.72a3.65,3.65,0,0,0-1.94-.16C217.13,266.4,215.25,267.09,216.56,267.76Z" transform="translate(-83.81 -134.86)"/>
    <path class="cls-8" d="M379.92,265.72s-4.22-28.84,6.45-37c0,0,25-14.9,28.32,13.6,0,0-3.5,22.46-13.87,26.21l-.41.14C389.72,272,380.76,273.16,379.92,265.72Z" transform="translate(-83.81 -134.86)"/>
    <path class="cls-8" d="M395.12,227.2a5.47,5.47,0,0,0,3.48-1.62,1,1,0,0,0,.22-.49c.09-1.65-4-.08-4.68,0-1.11.19-2.31-.1-3.39.17s-2.87,1.73-1.47,2.52S393.74,227.48,395.12,227.2Z" transform="translate(-83.81 -134.86)"/>
    <path class="cls-8" d="M380.93,237.29a3.2,3.2,0,0,0-.45,1.93.5.5,0,0,0,.11.32.39.39,0,0,0,.26.11,1,1,0,0,0,1-.89,1.91,1.91,0,0,0-.4-1.37,1.67,1.67,0,0,0-1.05.73.59.59,0,0,0-.12.4.71.71,0,0,0,.17.32,8.83,8.83,0,0,0,1.49,1.44" transform="translate(-83.81 -134.86)"/>
    <path class="cls-8" d="M396.36,270.36c.19,0,.38,0,.57,0a4,4,0,0,0,1.34-.46,8.69,8.69,0,0,1,1.82-.47,2.22,2.22,0,0,0,1-.31.76.76,0,0,0,.31-.89.81.81,0,0,0-.33-.33,2.22,2.22,0,0,0-2.11.17,8.65,8.65,0,0,1-2,1c-.95.22-3.17-.29-3.39,1.2C393.29,272,395.68,270.41,396.36,270.36Z" transform="translate(-83.81 -134.86)"/>
    <path class="cls-8" d="M217.19,358.2s-34,31.51-17.68,64.91c.41.84.85,1.68,1.33,2.52,0,0,12.36,20.36,64.66,7.39" transform="translate(-83.81 -134.86)"/>
    <path class="cls-8" d="M217.12,357l3.28,4.86,3.93,5.35,6,9,4.46,7,1.5,7.87,4.95-5.88,1-1.15,3,9.6,4,6,7.75,4,6.62,5.6,3.17,9.18.13,1.32,4.13-1.32,1.17-3,2.93,3,4.71,5.51,3,5.17,4.08,4.64s-50.89,29.55-89.55,16.49c0,0-2.74.19,2.23-27.1" transform="translate(-83.81 -134.86)"/>
    <path class="cls-8" d="M398.05,318.16s22.43-6,29,2.21l-12.39,4.38-15.87,16.89-12.45,13.14,3.34-21-.37-12.18.82-1.89,4.54,6.7,7.77.78-3.65-5.63Z" transform="translate(-83.81 -134.86)"/>
    <path class="cls-8" d="M372.24,367.69l5.1-13.41,2.82,6a23.46,23.46,0,0,1-4.53,4.59" transform="translate(-83.81 -134.86)"/>
    <path class="cls-8" d="M135.38,191.44s-10-8.42-6.34-14.83c0,0,7.51-17.43,24.1-14.78,0,0,11,1.29,8.11,11l-7.55-2.08-4.64,1.42-3,4.28-2.34,3-1.3,1.13.88,1.4,4.12-.74,3.14,1.59,2.9,2.91.28,1.87a85.63,85.63,0,0,0-.46,26.43c1,7.6,1.45,9.87,1.66,10.25s.19-1.15.19-1.15l-12.71-3.77L139.59,216s-.46-1.12-1.59,0l-1.13,1.12-7.49.41-12-1.83-1.88,3.4-.54,5.44,1.16,3.58,1.26,2.27-1.22,1L111.93,235l-3.16-5.45v-7l-1-7.57v-3.09s-11.34-7.43-14,17.87c0,0-6.47-1.92-10,11.19l7.88,17.81.39,7.49,8.42,14,8.06,3.66L138,285.75s-13.55,8.67.75,0,21.87-30.34,21.87-30.34c5.23-19.33-5.14-30.87-5.14-30.87" transform="translate(-83.81 -134.86)"/>
    <polyline class="cls-8" points="23.34 129.47 26.24 129.95 28.72 125.07"/>
    <path class="cls-8" d="M129.38,216c-2.26-13.17,1.87-28.31,1.87-28.31Z" transform="translate(-83.81 -134.86)"/>
    <path class="cls-8" d="M194.1,407c-40.61,12.88-65.69,1.37-65.69,1.37l-10,2.54c-15.9,2.58-15-19.47-15-19.47l-3.7-4.6c-9.55-10.66-10.42-30.6-10.92-51.09s14.62-54.22,14.62-54.22l7.39,2.89,31.91,8.63,10,50.27" transform="translate(-83.81 -134.86)"/>
    <path class="cls-8" d="M152.44,344.5l4.31-4,5.11-5.82,4.47-4.24,10.11-6.82,2-2s29.86-7.65,29.7-2.58l4.85,9.29s-3.21,23,3.84,30.66l-12.37,16.17s-36.56,3.61-41.35-6.14" transform="translate(-83.81 -134.86)"/>
    <path class="cls-8" d="M138.75,285.75" transform="translate(-83.81 -134.86)"/>
    <polyline class="cls-8" points="50.16 55.26 48.52 82.95 54.19 81.14 61.63 86.12 69.79 88.91 54.94 59.44"/>
    <path class="cls-8" d="M128.46,211.73c-.36,1.7-.9,3.63.1,5.05a2.87,2.87,0,0,0,4.68-.43,5.37,5.37,0,0,0,.38-1.86c.24-3.3,2.06-23.3-1.83-23.7s-3.12,6.22-3.07,8.19C128.82,203.23,129.34,207.53,128.46,211.73Z" transform="translate(-83.81 -134.86)"/>
    <path class="cls-8" d="M132.49,188.6a2.29,2.29,0,0,0-3,1.47,4.09,4.09,0,0,0,.12,1.93,6.41,6.41,0,0,0,1,2.5,2.46,2.46,0,0,0,2.38,1c1.29-.3,1.86-1.9,1.65-3.21a4.79,4.79,0,0,0-1.43-2.71,1.62,1.62,0,0,0-1.89-.48" transform="translate(-83.81 -134.86)"/>
    <path class="cls-8" d="M107.7,219.17a23.59,23.59,0,0,0-.22,9.32,11,11,0,0,0,2.47,5.65,5.44,5.44,0,0,0,5.65,1.67c1.94-.72,3.08-2.72,4.83-3.82a21.68,21.68,0,0,1,3.8-1.52c2.87-1.1,5.26-3.15,7.58-5.16a9.56,9.56,0,0,0,2.37-2.63c1-1.84.66-4.1,0-6.08a31.71,31.71,0,0,1-1.84-5.95c-.19-1.63,0-3.41-.87-4.77a3.38,3.38,0,0,0-3.31-1.46c-.92.14-1.74.67-2.65.86-3.23.69-6.45-2.86-9.54-1.71-1.21.45-2.07,1.54-3.22,2.15s-2.43.7-3.32,1.56a5.21,5.21,0,0,0-1.1,2c-1.66,4.72-2.62,10.18-.18,14.55" transform="translate(-83.81 -134.86)"/>
    <path class="cls-8" d="M123.36,203.46a8.5,8.5,0,0,0-4.57-.43c-.82.07-1.85.31-2,1.13s.48,1.27,1.07,1.64a10,10,0,0,0,6.09,1.51c.94-.08,2.11-.58,2-1.52,0-.6-.58-1-1.08-1.36a7.21,7.21,0,0,0-3.24-1.37,2.11,2.11,0,0,0,1,1.67" transform="translate(-83.81 -134.86)"/>
    <path class="cls-8" d="M125.07,204.2A6.34,6.34,0,0,0,123.6,206a14.93,14.93,0,0,0,2.23.51c.76,0,1.62-.66,1.38-1.39a1.45,1.45,0,0,0-1-.79c-.77-.23-1.9,0-1.9.81" transform="translate(-83.81 -134.86)"/>
    <path class="cls-8" d="M144.61,208.92a4.29,4.29,0,0,0-1.05,2.48,4.08,4.08,0,0,0,.43,1.51l2.54,6c.86,2,1.84,4.19,3.74,5.29a3.44,3.44,0,0,0,3.91-.1,3.37,3.37,0,0,0,1-2.65,9.87,9.87,0,0,0-.68-2.81l-2.62-7.55c-.45-1.3-1-2.74-2.3-3.27a4.82,4.82,0,0,0-2.79,0,5,5,0,0,0-3.34,1.68,3.41,3.41,0,0,0-.33,2.74,9.87,9.87,0,0,0,1.22,2.56" transform="translate(-83.81 -134.86)"/>
    <path class="cls-8" d="M135.42,212.74a3.64,3.64,0,0,0-2.37,2.76,5.54,5.54,0,0,0,.12,2.18,14.05,14.05,0,0,0,1,3,3.82,3.82,0,0,0,1.5,1.89,3.35,3.35,0,0,0,2.85-.05,7.18,7.18,0,0,0,2.63-11.55,3,3,0,0,0-1.14-.85,2.83,2.83,0,0,0-1.68,0,6.66,6.66,0,0,0-2.67,1.52,10.19,10.19,0,0,0-3.28,8.73" transform="translate(-83.81 -134.86)"/>
    <path class="cls-8" d="M111.06,281.57c-1.52-1.36-4.18-.3-5,1.56s-.33,4,.47,5.92a11.6,11.6,0,0,0,4.64,5.72,15,15,0,0,0,4.61,1.46,103.65,103.65,0,0,0,21.38,1.83,3.53,3.53,0,0,0,1.8-.36,3.15,3.15,0,0,0,1.07-1.32,9.43,9.43,0,0,0,1.09-6.05c-.44-2.18-1.86-4-3.25-5.75-1.22-1.53-2.51-3.12-4.32-3.85-2-.81-4.23-.46-6.36-.2a59,59,0,0,1-19.88-1l.14,1.74" transform="translate(-83.81 -134.86)"/>
    <path class="cls-8" d="M97.9,278.32a1.71,1.71,0,0,0,.66.5.61.61,0,0,0,.33,0,.51.51,0,0,0,.39-.27.93.93,0,0,0,0-.47c-.26-1.56-1.73-7.63-4.27-6.22C92.79,273.13,96.88,277.19,97.9,278.32Z" transform="translate(-83.81 -134.86)"/>
    <path class="cls-8" d="M93.62,272.86a4.8,4.8,0,0,0,.93,1.49,1.82,1.82,0,0,0,.93.46,1.26,1.26,0,0,0,.69-.09c.78-.37.86-1.46.7-2.31C96.28,269.42,91.82,269,93.62,272.86Z" transform="translate(-83.81 -134.86)"/>
    <path class="cls-8" d="M141.71,297.52c-1,1.2-1,3-.93,4.54a102.19,102.19,0,0,0,4,22.29c.92,3.12,2,6.29,4.2,8.72a3.56,3.56,0,0,0,2-2.83,10.24,10.24,0,0,0-.26-3.61c-2.32-12.1-4.66-24.27-9.24-35.7a1.12,1.12,0,0,0-.47-.65c-.68-.33-1.12.76-1.1,1.52q.21,6.39,1,12.74" transform="translate(-83.81 -134.86)"/>
    <path class="cls-8" d="M168.38,364.93c-3.07,5.14-2.23,11.63-1.15,17.52a44.53,44.53,0,0,0,2.56,9.61,16.1,16.1,0,0,0,6.2,7.6c3.06,1.83,6.78,2.25,9.91,3.95a42.74,42.74,0,0,0,4,2.3,10.71,10.71,0,0,0,8.18-.34,23.55,23.55,0,0,0,6.82-4.82,18,18,0,0,0,4.59-6,21.16,21.16,0,0,0,1.14-7c.17-3.54.32-7.15-.6-10.57a30,30,0,0,0-3.85-8,25.93,25.93,0,0,0-4-5.19,21.27,21.27,0,0,0-5.76-3.66,32.47,32.47,0,0,0-14.88-3.09,24,24,0,0,0-14.14,5.25,8.75,8.75,0,0,0-2.86,3.69c-1.14,3.28,1,6.73,3,9.56" transform="translate(-83.81 -134.86)"/>
    <path class="cls-8" d="M298.32,317.09a9.33,9.33,0,0,0-3.58,2.53c-.8.92-1.43,2.29-.77,3.32s2.17,1,3.37.79a6.93,6.93,0,0,0,2.69-1.06,3.2,3.2,0,0,0,1.42-2.42,2.12,2.12,0,0,0-1.58-2.16,2.82,2.82,0,0,0-2.16.69,17.11,17.11,0,0,1-1.86,1.44" transform="translate(-83.81 -134.86)"/>
    <path class="cls-8" d="M385.68,351.92a4,4,0,0,0-1.14,2.06,1.54,1.54,0,0,0,1.21,1.77,2,2,0,0,0,1.39-.57,3.05,3.05,0,0,0,1.08-1.29,2.37,2.37,0,0,0-.32-2,7.11,7.11,0,0,0-1.47-1.53.87.87,0,0,0-.49-.26c-.54,0-.57.8-.4,1.32" transform="translate(-83.81 -134.86)"/>
    <path class="cls-8" d="M373.73,365.1a4.17,4.17,0,0,0-.71,1.81,1.47,1.47,0,0,0,.94,1.54,1.58,1.58,0,0,0,1.63-.91,17.48,17.48,0,0,0,.7-1.87,2.55,2.55,0,0,1-1.37-1.54,3.77,3.77,0,0,0-1.12.9,1.22,1.22,0,0,0-.12,1.35" transform="translate(-83.81 -134.86)"/>
    <path class="cls-8" d="M361.69,423.09s-18-11.43-22.51.15l-1.12,2.39s-9.94-5.44-15,1.68l-4.35,12.19s-16.52,4.08-11.9,14L308,458s-8.53,10.66-2,21.22c0,0,25.12,16.75,60.75,8.31C366.75,487.5,372.19,433.5,361.69,423.09Z" transform="translate(-83.81 -134.86)"/>
    <path class="cls-8" d="M319,437.32c-.1.61-.15,1.36.34,1.73a1.14,1.14,0,0,0,1.26,0,2.85,2.85,0,0,0,.86-1c.46-.79.84-1.62,1.23-2.45a24.83,24.83,0,0,0,1.68-4.31c.29-1.14.94-4.71-.64-4.87a3.64,3.64,0,0,0-2.71,1.57,9.43,9.43,0,0,0-1,3.38C319.61,433.31,319.3,435.32,319,437.32Z" transform="translate(-83.81 -134.86)"/>
    <path class="cls-8" d="M329.12,427.18a5.13,5.13,0,0,0,2.07-1,1.74,1.74,0,0,0,.6-1.33c-.25-2.74-6.82-1.27-8.16.15-.74.78-2.52,2.94-.77,3.36S327.52,427.66,329.12,427.18Z" transform="translate(-83.81 -134.86)"/>
    <path class="cls-8" d="M311.43,445.42a2.32,2.32,0,0,0,2.23-2.26,1,1,0,0,0,0-.39.87.87,0,0,0-.43-.48,3,3,0,0,0-4.13.45c-.4.53-1.18,1.74-.82,2.42C308.8,446.1,310.64,445.61,311.43,445.42Z" transform="translate(-83.81 -134.86)"/>
    <path class="cls-8" d="M312.93,440.78a3.51,3.51,0,0,0-1.33.18,1.21,1.21,0,0,0-.82,1,1.77,1.77,0,0,0,3-.45,2.19,2.19,0,0,0-1.57-.61" transform="translate(-83.81 -134.86)"/>
    <path class="cls-8" d="M310.59,479.06l-1.89-.48c-.78.77-1.62,1.86-1.13,2.83a2.43,2.43,0,0,0,1.05.93,16.94,16.94,0,0,0,3.48,1.48,13.9,13.9,0,0,1,1.69.55c.55.24,1,.59,1.57.87a15.56,15.56,0,0,0,5.22,1.37.78.78,0,0,0,.43,0c.28-.13.32-.5.28-.8a5.17,5.17,0,0,0-2-3.26,15,15,0,0,0-3.4-1.92c-2.24-1-4.68-2.09-7.1-1.62l0,.35" transform="translate(-83.81 -134.86)"/>
    <path class="cls-8" d="M219.52,620.25s-1,37.87,2.1,40.87l-15.37,2.26s16.32,19.61,14.3,25.93L221.62,708l24.28-1.45,13.35-1.67s15-6.53,10.88-20.69c0,0-14.19-14.07-1-49.13l-30.62-13.78Z" transform="translate(-83.81 -134.86)"/>
    <path class="cls-8" d="M318.61,623.34s11.5,33.66,6.62,37.78c0,0-8.05,22.14-9,28.19s.95-6,.95-6-1,16.52,11.32,19.12c0,0,24.47,6.56,24.75,9.74-.12,1.19-9.54,3.85,7.74-22.25l24.63-18.78-11.88-3.36L369,665.81l3.67-34.87-16.33,2.41-13.76-1.65-22.8-7.79" transform="translate(-83.81 -134.86)"/>
    <path class="cls-8" d="M378.75,724.88s-2.91-13.74,0-18.19c0,0,.91-6,9.6-14.14,0,0,7.15-9.09,15.95-9.33h5l-1.52-2.1,15.89,3.63a11,11,0,0,1,.43,8.3s1.19,9.28-4.08,13.45c0,0-.87,11.41-7.86,11.62,0,0-11.48,13.38-23.93,6.76" transform="translate(-83.81 -134.86)"/>
    <path class="cls-8" d="M349.59,706.74a2.7,2.7,0,0,0,.26,3,8,8,0,0,0,2.43,2,1.05,1.05,0,0,0,.75.22c.42-.11.52-.64.55-1.07a39.84,39.84,0,0,1,.86-6.06,24.08,24.08,0,0,1,2.06-6c2-3.87,5.41-6.9,7.37-10.8a1.66,1.66,0,0,0,.24-.83,1.16,1.16,0,0,0-1.14-1,3.25,3.25,0,0,0-1.54.43,38.91,38.91,0,0,0-7.94,5.13,13.25,13.25,0,0,0-3.23,3.61c-1.2,2.16-1.32,4.75-1.42,7.22-.08,2.27-.15,4.63.77,6.7" transform="translate(-83.81 -134.86)"/>
    <path class="cls-8" d="M320.38,693a4,4,0,0,0-.19-1.83c-.3-1.13-.78-5.55-1.85-6.07-1.28-.63-2.54,1.41-2.59,2.45-.06,1.36.82,3,1.36,4.22S319.77,695.7,320.38,693Z" transform="translate(-83.81 -134.86)"/>
    <path class="cls-8" d="M316.58,684c0,.33,0,.72.28.88a.79.79,0,0,0,.64,0c1.62-.58,4.5-5.54,2.38-6.53C317.52,677.26,316.72,682.71,316.58,684Z" transform="translate(-83.81 -134.86)"/>
    <path class="cls-8" d="M319.78,676.15a1.9,1.9,0,0,0-1.43.92,3.75,3.75,0,0,0-.51,1.68,4,4,0,0,0,.16,1.78,3.88,3.88,0,0,0,2.67-5.59,3.92,3.92,0,0,0-1.49,1.11,1.34,1.34,0,0,0,.05,1.71" transform="translate(-83.81 -134.86)"/>
    <path class="cls-8" d="M325.29,650.91a35.3,35.3,0,0,0,1.25,9.43c.33-.06.44-.47.48-.8a19.22,19.22,0,0,0-.64-7.39l-.08,1" transform="translate(-83.81 -134.86)"/>
    <path class="cls-8" d="M325.55,658.5a4.76,4.76,0,0,0-.43,1.42,1.53,1.53,0,0,0,.51,1.33.65.65,0,0,0,.77.07.88.88,0,0,0,.23-.62,9.59,9.59,0,0,0-.45-3.76,2.83,2.83,0,0,0-.59,2.53" transform="translate(-83.81 -134.86)"/>
    <path class="cls-8" d="M178.23,677.12c-1.08,1.08-2.84.89-4.36.85a31,31,0,0,0-3.73.2c-3.9.36-7.8.72-11.68,1.25-1.71.23-3.58.59-4.64,2s-1,3-.85,4.65a75.11,75.11,0,0,0,1.33,9.33,3.84,3.84,0,0,0,1.4,2.65c.6.36,1.38.38,1.92.82a3,3,0,0,1,.83,1.46l1.84,5.35a15,15,0,0,0,1.41,3.26,10.12,10.12,0,0,0,6.5,4.13,5.59,5.59,0,0,0,1.41.15,10.4,10.4,0,0,0,2.35-.65,28.91,28.91,0,0,1,3.59-.6,17.22,17.22,0,0,0,9.58-5c-.77-.38-1.61.68-1.38,1.51a3.43,3.43,0,0,0,1.75,1.81l8.16,5a36.77,36.77,0,0,0,1.1-9.17c0-2.1-.21-4.19-.41-6.28-.41-4.33-.86-8.72-2.33-12.81-1.73-4.83-4.81-9.06-8.08-13a2.46,2.46,0,0,1-2.27,0c0,1.29-1.43,2.07-2.63,2.55s-2.62,1.1-2.86,2.38" transform="translate(-83.81 -134.86)"/>
    <path class="cls-4" d="M123,223.73a11.12,11.12,0,0,0,2.19,2.3,11.55,11.55,0,0,0,4.68,1.65c1.19.24,2.63.4,3.43-.52a3.61,3.61,0,0,1,.57-.66c.33-.24.78-.25,1.1-.5.53-.44.35-1.27.41-1.95a6.72,6.72,0,0,1,1.31-2.8,3.12,3.12,0,0,0,.51-2.94,66.68,66.68,0,0,1-10.73-1.15c-1.22-.23-8.13-2.22-8.65-1.07S122.24,222.75,123,223.73Z" transform="translate(-83.81 -134.86)"/>
    <path class="cls-4" d="M413.57,690.1a1.44,1.44,0,0,0,.49.81,1.58,1.58,0,0,0,.77.23c.91.12,2,.15,2.54-.63.35-.53.26-1.25.6-1.78a3.91,3.91,0,0,1,.56-.59,4,4,0,0,0,1.13-3.33c-1.76-.63-3.63-2-5-.34A6.25,6.25,0,0,0,413.57,690.1Z" transform="translate(-83.81 -134.86)"/>
    <path class="cls-4" d="M410.85,698.3a.61.61,0,0,0,.06.44.74.74,0,0,0,.52.23,14.34,14.34,0,0,1,4,1.16c.7.32,1.54.69,2.19.28a2.22,2.22,0,0,0,.6-.69l1.23-1.92.39-.61a1.8,1.8,0,0,0,.37-1.75l-.58-2.66a1.37,1.37,0,0,0-.55-1,1.41,1.41,0,0,0-.57-.11c-1.84-.07-5.19-.85-6.57.86-.58.72-.4,1.59-.48,2.44C411.36,696.1,411,697.17,410.85,698.3Z" transform="translate(-83.81 -134.86)"/>
    <path class="cls-4" d="M408.68,699.57a13.59,13.59,0,0,0-.21,3.06c0,.47,0,.93,0,1.4a18.62,18.62,0,0,0,.87,5.25.94.94,0,0,0,.22.39,1,1,0,0,0,.73.17,4.21,4.21,0,0,0,2.38-.54c1.15-.8,1.22-2.42,1.48-3.79a10.09,10.09,0,0,1,.87-2.62,4.91,4.91,0,0,0,.5-1.21,1.27,1.27,0,0,0-.33-1.2,1.86,1.86,0,0,0-.67-.31l-1.64-.49a7.46,7.46,0,0,0-2.32-.45,2.55,2.55,0,0,0-2.08,1,1.29,1.29,0,0,0,0,1.52" transform="translate(-83.81 -134.86)"/>
    <path class="cls-4" d="M395.3,716.27a4.65,4.65,0,0,0,2.54,1.72c.88.32,1.79.61,2.7.85,2,.54,4.47.77,5.92-.74.63-.66,1-1.55,1.55-2.24.9-1,2.42-1.65,2.71-3,.34-1.5-1.1-2.77-2.44-3.53a14.41,14.41,0,0,0-2.86-1.29c-2.26-.71-6.84-1.29-8.7.6C395.11,710.28,394.09,714.25,395.3,716.27Z" transform="translate(-83.81 -134.86)"/>
    <path class="cls-4" d="M173.69,694.42a12.57,12.57,0,0,1,2.81,9.84" transform="translate(-83.81 -134.86)"/>
    <path class="cls-4" d="M173.47,694.3c.61,2.2,2.7,3.91,2.76,6.19,0,1.25-.51,2.66.25,3.65l-7.33.15a4.2,4.2,0,0,1-3.18-.82" transform="translate(-83.81 -134.86)"/>
    <path class="cls-4" d="M161.82,694.14c-.93.86-.7,2.36-.39,3.6a16.41,16.41,0,0,0,1.33,3.93,5.51,5.51,0,0,0,3,2.71" transform="translate(-83.81 -134.86)"/>
    <path class="cls-4" d="M162.57,695.44a6.07,6.07,0,0,1,3.84-1.37,17.4,17.4,0,0,1,4.12.5c1.84.36,3.84.83,5,2.32l.16,4a4.68,4.68,0,0,1-.74,3.38" transform="translate(-83.81 -134.86)"/>
    <path class="cls-4" d="M168.65,702c.89-2.94-3.3-7.72-5-3.52C162.31,701.74,167.35,706.28,168.65,702Z" transform="translate(-83.81 -134.86)"/>
    <path class="cls-4" d="M164.09,696.4a1.86,1.86,0,0,0,.42,2.8,4,4,0,0,0-1-3.28.81.81,0,0,0-.38-.26.57.57,0,0,0-.61.46,1.33,1.33,0,0,0,.13.83,6,6,0,0,0,1.67,2.35" transform="translate(-83.81 -134.86)"/>
    <path class="cls-4" d="M160.89,693.41a8.17,8.17,0,0,0,1.84.26l3.77.22c.09-.38-.2-.74-.38-1.09-.63-1.23.12-2.76-.23-4.1-.26-1-1.08-1.75-1.36-2.74a5.56,5.56,0,0,1-.11-1.53l0-1.83a6.54,6.54,0,0,0-.19-2.21,2.23,2.23,0,0,0-1.47-1.54c-.89-.22-1.77.3-2.68.37s-2-.2-2.43.56a1.65,1.65,0,0,0-.16.76C157.28,684.48,155.65,691.81,160.89,693.41Z" transform="translate(-83.81 -134.86)"/>
    <path class="cls-4" d="M165.94,701.8q4.77,1.41,9.65,2.44l-.52-.57.8.77" transform="translate(-83.81 -134.86)"/>
    <path class="cls-4" d="M169.5,702.75c1.65.57,3.34,1,5,1.46l-.54-.71" transform="translate(-83.81 -134.86)"/>
    <path class="cls-9" d="M162.76,701.67" transform="translate(-83.81 -134.86)"/>
    <path class="cls-9" d="M227,413.34s-13.06-8.75-15.25,2.36h0S221.37,428,227,413.34" transform="translate(-83.81 -134.86)"/>
    <path class="cls-9" d="M213.85,418.93a2.91,2.91,0,0,0,1.9,1.15,2.86,2.86,0,0,0,1.05-.17,1.37,1.37,0,0,0,.93-.71,1.39,1.39,0,0,0-.37-1.29,5.48,5.48,0,0,0-4.34-2.1C210.75,416,213.16,418.13,213.85,418.93Z" transform="translate(-83.81 -134.86)"/>
    <path class="cls-9" d="M225.63,418.07a1.35,1.35,0,0,0,.76-.43,2.77,2.77,0,0,0,.29-1.05,7.93,7.93,0,0,1,.47-1.13,1.31,1.31,0,0,0,0-1.19,1.06,1.06,0,0,0-.92-.44,1.93,1.93,0,0,0-1,.36,5.2,5.2,0,0,0-2,2.39C223,417.93,224.6,418.32,225.63,418.07Z" transform="translate(-83.81 -134.86)"/>
    <path class="cls-9" d="M223,417a3.34,3.34,0,0,0,.28,1.16,1.48,1.48,0,0,0,1.09-.21.86.86,0,0,0,.31-1,1.11,1.11,0,0,0-1-.52,1.22,1.22,0,0,0-1,.38.62.62,0,0,0,.14.93" transform="translate(-83.81 -134.86)"/>
    <path class="cls-9" d="M223.3,417.76l.79,1.06a1.05,1.05,0,0,0,1-.86.87.87,0,0,0-.83-1,.76.76,0,0,0-.65,1" transform="translate(-83.81 -134.86)"/>
    <path class="cls-9" d="M223.88,411.09l-.53,1a2.53,2.53,0,0,0,1.58.89,7.53,7.53,0,0,0,1.84.05c.1-.24-.14-.46-.36-.6a18,18,0,0,0-2.76-1.42.81.81,0,0,1-.25.45" transform="translate(-83.81 -134.86)"/>
  </g>
  <g id="sombras">
    <path class="cls-10" d="M336.68,141.79c2.62,7.25,10.16,11.26,15.37,16.92,10.2,11.09,10.84,28.32,6.21,42.65-1.53,4.73-3.59,9.46-3.48,14.43.09,4.38,1.87,8.53,2.93,12.79a79.1,79.1,0,0,1,1.5,8.68c1,7.45,2,15,.8,22.46a38.18,38.18,0,0,1-7,16.53,16.75,16.75,0,0,1-5.61,5.15c-3.34,1.7-7.36,1.51-11,.58s-7-2.55-10.63-3.66a39.41,39.41,0,0,0-21.35-.48c2.24,1.73,5.38,1.35,8.22,1.5a19.93,19.93,0,0,1,16,9.85c.71,1.23,1.35,2.62,2.58,3.33a6.64,6.64,0,0,0,3.19.6c8.21.12,17-.71,23.44-5.8,5.06-4,8-10.19,9.3-16.5s1.11-12.82.92-19.26l-.95-31.76c-.23-7.68-.43-15.56,2.14-22.79a9.54,9.54,0,0,1,2.05-3.65,11.29,11.29,0,0,1,5.08-2.43c3.86-1.1,8.2-2.15,11.69-.18a84.23,84.23,0,0,0-45.45-49c-2-.87-4.48-1.63-6.26-.35a6.05,6.05,0,0,1-.29,6.07" transform="translate(-83.81 -134.86)"/>
    <path class="cls-10" d="M236.94,284.39a10.84,10.84,0,0,0-3.93,4,2.28,2.28,0,0,0-.23,1.59,2.93,2.93,0,0,0,.63.94l2,2.29a6.41,6.41,0,0,0,2.72-1.91,40.58,40.58,0,0,1,7.35-5.71c1.91-1.17,7.16-2.36,5.58-5.08C248.27,275.69,239.71,282.49,236.94,284.39Z" transform="translate(-83.81 -134.86)"/>
    <path class="cls-10" d="M203.42,260l3.11,2.85a23.79,23.79,0,0,0,5.2,4,12.23,12.23,0,0,0,8.3,1,2.49,2.49,0,0,0,1.55-.89,2.78,2.78,0,0,0,.29-1l1.08-7.42a8.24,8.24,0,0,0,.06-3,2.79,2.79,0,0,0-1.88-2.17c-.59,2.7-1.4,5.72-3.81,7.09-2.19,1.24-4.92.66-7.34,0a9,9,0,0,1-2.15-.82,10.58,10.58,0,0,1-2.12-1.84c-1-1-4.94-5.27-6.08-4C198.13,255.28,202.47,259.11,203.42,260Z" transform="translate(-83.81 -134.86)"/>
    <path class="cls-10" d="M222.8,234.64a36.71,36.71,0,0,0,.19,4.81c.17.9.62,1.91,1.51,2.07l1.25-10.42a12.09,12.09,0,0,0,.06-3.5,4,4,0,0,0-1.89-2.82,5.7,5.7,0,0,0-2-.48c-2.63-.31-.76,2.51-.35,3.87A26.44,26.44,0,0,1,222.8,234.64Z" transform="translate(-83.81 -134.86)"/>
    <path class="cls-10" d="M218.44,257.35c-1.22,1.54-3.69,1.77-4.68,3.47a.37.37,0,0,0-.07.2c0,.2.31.23.52.19,1.53-.3,3-.67,4.55-1.1a6.81,6.81,0,0,0,1.64-.64,7.38,7.38,0,0,0,2.58-3.65,6.63,6.63,0,0,0,.72-2.62,6.44,6.44,0,0,0-.51-2.15,3.58,3.58,0,0,0-3.41-3.06c-2.51-.47-5.76.18-6.81,2.85,1.93.6,4.22-1.05,6.23-.9C219.67,252,219.86,255.56,218.44,257.35Z" transform="translate(-83.81 -134.86)"/>
    <path class="cls-10" d="M146,376.26c8.6-9.15,7.08-24.81,16-33.65,1.28-1.27,2.74-2.35,4.05-3.6,1.79-1.7,3.29-3.7,5-5.45a26.82,26.82,0,0,1,11.37-6.8c2.34-.69,4.78-1.06,7-1.93,1.39-.54,2.71-1.25,4.14-1.69a22.23,22.23,0,0,1,5.34-.71l10.95-.54a23.91,23.91,0,0,0-2.34-4.12,2.4,2.4,0,0,0-.94-.88,2.86,2.86,0,0,0-2.05.37c-3.29,1.37-7,.47-10.59.9-5.3.64-9.82,4.23-15,5.36a19.06,19.06,0,0,0-5,1.29,13.21,13.21,0,0,0-2.68,2.1c-5.95,5.47-13.18,10.06-17.47,17.1-3.12,5.12-2.58,12.65-3.84,18.39q-.78,3.57-1.78,7.1C147.71,371.2,147.24,375,146,376.26Z" transform="translate(-83.81 -134.86)"/>
    <path class="cls-10" d="M129.08,283.47c1.4,3.72,4.94,6.21,6.78,9.73a20.32,20.32,0,0,1,1.61,4.83c1.58,6.84,2.12,13.93,4.31,20.61.68,2.06,1.51,4.07,2.06,6.16a49.93,49.93,0,0,1,1.18,7.41c.66,6.16,1.32,12.33,1.57,18.53a141.71,141.71,0,0,1-1.82,29.09c5.63-7.08,7.54-16.32,9.29-25.19a13,13,0,0,0,.37-4.11,25.45,25.45,0,0,0-1-3.7c-1-3.6-.54-7.44-.83-11.17a53.2,53.2,0,0,0-1.27-7.29l-3.15-14.22A51.86,51.86,0,0,0,145,303.6c-.65-1.41-1.42-2.76-2-4.2-1.61-4.12-1.49-8.87-3.73-12.67a11.83,11.83,0,0,0-12.92-5.26c.79,1.15,2,2,2.72,3.14s.9,3-.24,3.75" transform="translate(-83.81 -134.86)"/>
    <path class="cls-10" d="M127,281.89c6.62-2.09,13.56-4.38,18.25-9.48a31.53,31.53,0,0,0,4.94-7.72c4.38-9.06,6.84-19.64,3.72-29.21-1.46-4.46-4-8.46-6-12.74,2.84.24,5.86.55,8.1,2.31,2.53,2,3.47,5.35,4.18,8.49a55.07,55.07,0,0,1,1.1,6,47,47,0,0,1-.55,12.41A40.24,40.24,0,0,1,158.06,262a50.21,50.21,0,0,1-5.48,8.81c-1.42,2-2.84,3.92-4.38,5.78a23.68,23.68,0,0,1-8.41,6.91,15.59,15.59,0,0,1-11.85.08C128,283.32,127.36,282.47,127,281.89Z" transform="translate(-83.81 -134.86)"/>
    <path class="cls-10" d="M150.67,183.81c.35,1.21,2.07,1.33,2.93,2.25,1.29,1.37.17,3.53-.53,5.28-1.66,4.17-.42,8.84,0,13.31s.07,9,.51,13.55c.12,1.29,1.76,5.5,1.34,6.49s-1.19.58-2.31.16c-1.29-.49-3.58-1.28-4.22-2.52-.84-1.61-.12-5.07-.11-6.87,0-5,.13-9.92.42-14.87A134.91,134.91,0,0,1,150.67,183.81Z" transform="translate(-83.81 -134.86)"/>
    <path class="cls-10" d="M155.21,170.44l-.26-6.55a8,8,0,0,1,6.21,7.62,27.74,27.74,0,0,1-5.38-1.9l-.33,1.39" transform="translate(-83.81 -134.86)"/>
    <path class="cls-10" d="M105.6,379.54a13.93,13.93,0,0,0,9.19-3c-1.9,3.45-3.62,7.1-4.07,11s.57,8.17,3.46,10.85a12.29,12.29,0,0,0,10.47,2.65,23.4,23.4,0,0,0,9.95-4.86,86.67,86.67,0,0,0,9.85-9.41,30.05,30.05,0,0,1-4,12,3.39,3.39,0,0,0-.7,2c.14,1.39,1.85,1.93,3.24,2.12a106.86,106.86,0,0,0,15.38,1,29.25,29.25,0,0,0,9.9-1.42c1.89-.71,3.63-1.75,5.46-2.6,7.58-3.49,16.71-3.63,23.32-8.72l-3.36,14.58a2.12,2.12,0,0,1-1.57,2,71.75,71.75,0,0,1-19.78,4.77c-8.77.84-17.6.05-26.38-.74-4.34-.4-8.88-.85-12.54-3.21a14.41,14.41,0,0,0-2.89-1.72,2.91,2.91,0,0,0-3.13.52c-.43.48-.62,1.14-1,1.63a4.37,4.37,0,0,1-2.8,1.12l-4.71.67c-3.65.52-7.87.87-10.53-1.68-1.87-1.78-2.42-4.53-2.52-7.1s.16-5.2-.49-7.7c-1.21-4.66-5.12-7.86-7.61-11.81-1-1.59-2.44-3.44,0-4S103.18,379.51,105.6,379.54Z" transform="translate(-83.81 -134.86)"/>
    <path class="cls-10" d="M232.26,434.06c2.36.18,4.73.19,7.1.17,9.15-.06,18.35-.5,27.27-2.53-1.6,2.8-4.89,4.1-8,5.05a164.48,164.48,0,0,1-20.93,4.72c-4,.68-8,1.3-12,.75-2.18-.3-4.3-.94-6.48-1.16-1.2-.12-2.41-.11-3.61-.25-4.85-.59-9.11-3.67-12.17-7.47s-5.08-8.32-7.06-12.78c-1-2.29-2.7-6-1.35-8.39,1.37,1,1.89,3.33,2.92,4.71a35.69,35.69,0,0,0,6.86,6.53,51.35,51.35,0,0,0,16.88,8.7A50,50,0,0,0,232.26,434.06Z" transform="translate(-83.81 -134.86)"/>
    <path class="cls-10" d="M306.15,459.94c.65,5.2,5.24,9,9.82,11.53a22.43,22.43,0,0,0,5.15,2.25,27.79,27.79,0,0,0,5.45.72l12.4.83a50.15,50.15,0,0,0,9.41,0c8.08-1,15.2-5.9,20.83-11.78l-3.47,24.62c-3.7-.53-7.4.6-11.08,1.23-7.6,1.3-15.38.47-23-.36a29.34,29.34,0,0,1-6.11-1.1c-2.44-.8-4.67-2.23-7.18-2.75-2.14-.44-4.44-.21-6.45-1.08a11,11,0,0,1-4-3.39c-2-2.5-3.79-5.41-3.94-8.62a28.4,28.4,0,0,0-.08-4.23,9.19,9.19,0,0,1-.33-1.86c.05-2,2.35-3.23,2.76-5.17l.62,2.13" transform="translate(-83.81 -134.86)"/>
    <path class="cls-10" d="M358.28,643.14l.77,18c.18,4.12.56,8.7,3.6,11.5,2.22,2,5.37,2.65,8.35,3.16a9.95,9.95,0,0,0,11-3.36c-3.74-2.62-8.62-3.2-12.33-5.86a5.2,5.2,0,0,1-1.81-2,5.81,5.81,0,0,1-.33-2.72c.47-10,5.24-19.54,5.43-29.59,0-.82-.1-1.81-.84-2.16-1.4,2.36-4.63,2.66-7.37,2.69l-11.19.11c-1.27,0-6.6-.66-6.19.81.36,1.29,4.65,2.83,5.74,3.4C356,638.59,358.28,639.54,358.28,643.14Z" transform="translate(-83.81 -134.86)"/>
    <path class="cls-10" d="M242.61,626.1c5.5,2.92,8.64,9.16,9.26,15.36a56.1,56.1,0,0,1,.09,7.22c-.22,7.41-.32,15,2.31,22,1.59,4.2,4.15,8,5.34,12.35s.63,9.63-3,12.31c-2.07,1.53-4.74,1.93-7.29,2.27L238.65,699A115.69,115.69,0,0,1,224,700.42a3.87,3.87,0,0,0-2.11.41c-1.12.74-1.12,2.35-1,3.69a4.79,4.79,0,0,0,.64,2.33c.87,1.25,2.66,1.38,4.16,1.14,2.65-.41,5.15-1.56,7.81-1.86,2.84-.33,5.68.31,8.5.67a40.56,40.56,0,0,0,12.82-.38,18.41,18.41,0,0,0,7.6-3c4.23-3.16,5.9-8.64,7.07-13.79a6.58,6.58,0,0,0,.14-3.32,16.47,16.47,0,0,0-1.45-2.58c-1.07-2-.74-4.54-1.51-6.72-.64-1.8-2-3.27-2.74-5-1.32-3.07-.69-6.59,0-9.86l5.85-29.47c-.55-.65-1.55,0-2.35.24a4.85,4.85,0,0,1-2.9-.29l-8.65-2.69a11.86,11.86,0,0,1-2.53-1,17.5,17.5,0,0,1-2.19-1.75,32.35,32.35,0,0,0-8.88-4.81c-1.52-.62-11.27-4.42-10.49-1C232.4,624.1,240.39,624.93,242.61,626.1Z" transform="translate(-83.81 -134.86)"/>
    <path class="cls-10" d="M408.07,327a6.51,6.51,0,0,0,3.8,1c2-.3,3.23-2.15,4.57-3.61a15.33,15.33,0,0,1,8.72-4.68c-.49-2.21-3.06-3.19-5.29-3.57-5.82-1-14.25-.95-19.73,1.57S406,326,408.07,327Z" transform="translate(-83.81 -134.86)"/>
    <path class="cls-10" d="M382.22,247.46c-1.2,2.26-1.39,4.91-1.55,7.46a5.62,5.62,0,0,0,.32,2.8,10.33,10.33,0,0,0,1.85,2.07c1.67,1.81,2.2,4.68,4.36,5.89a6.6,6.6,0,0,0,2.52.68,21.35,21.35,0,0,0,14.41-4,26.79,26.79,0,0,0,9.12-12c-1.82,7-4.95,14.42-11.3,18-5.22,2.92-11.66,2.68-17.46,1.23a4.61,4.61,0,0,1-2.87-1.57,4.85,4.85,0,0,1-.6-2.12,93.3,93.3,0,0,1-.44-15.41c.07-1.46.65-3.38,2.12-3.34l-.85,3.37" transform="translate(-83.81 -134.86)"/>
    <path class="cls-10" d="M384.91,239.31a23,23,0,0,1,9-4.36,9.54,9.54,0,0,1,2.74-.42c2.71.07,4.91,2.08,6.83,4a8.23,8.23,0,0,1,1.55,1.89,7.36,7.36,0,0,1,.62,2,39.58,39.58,0,0,1,.67,8,34.28,34.28,0,0,0-4.07-9.76,8.93,8.93,0,0,0-3.45-3.6,7.2,7.2,0,0,0-2.28-.61,14.07,14.07,0,0,0-9.64,3c-2.32,1.71-6.09,4.94-6.93,7.67.86-.29,1.18-2.85,1.73-3.89A13.33,13.33,0,0,1,384.91,239.31Z" transform="translate(-83.81 -134.86)"/>
    <path class="cls-11" d="M213.33,338.42a9.88,9.88,0,0,0,.23,7.88A29.43,29.43,0,0,0,218,353c4.28-5.62,6-12.9,10.45-18.39.95,1.35.83,3.17.67,4.82l-1.22,12.46a27.07,27.07,0,0,0-.12,6.23,24.62,24.62,0,0,0,1.78,5.9c1.08,2.7,2.21,5.36,3.41,8a6.33,6.33,0,0,0,1.37,2.14c.87.78,2.18,1.09,2.75,2.1a54.74,54.74,0,0,1,1.14-11.51A18.08,18.08,0,0,1,244,355c1,1.95.69,4.29.48,6.48a48.88,48.88,0,0,0,4.31,25.14c1.2,2.58,2.63,5.07,3.61,7.75a14.1,14.1,0,0,1,.72,8.4l-4-5.15a26.56,26.56,0,0,1-2.85-4.15,26.83,26.83,0,0,1-1.82-4.94c-1.14-3.84-2.29-7.67-3.26-11.56a10,10,0,0,1-5.41,14,8.87,8.87,0,0,0,.21-6.57,26.48,26.48,0,0,0-3.12-6,32.21,32.21,0,0,0-3.29-4.56c-1-1-2.05-2-3-3-4-4.8-3.8-11.76-3.34-18a60,60,0,0,0-.94,12,33.45,33.45,0,0,1-6.41-9.68c-2.42-5-4.41-10.61-3.51-16.13l1,2.67" transform="translate(-83.81 -134.86)"/>
    <path class="cls-11" d="M257.2,370A59.92,59.92,0,0,0,255,382c-.2,2.51-.19,5.21,1.19,7.32a17.11,17.11,0,0,0,2.73,2.85c3.39,3.19,5.84,7.23,8.24,11.22a55.47,55.47,0,0,1,1.74-21.6c1.27,6.93,2.67,14.16,7,19.68a33,33,0,0,1-.23-8.54,37.11,37.11,0,0,1,2.14-7.19c2.41-6.64,4.34-13.43,6.27-20.22,3.13,9.28-.27,19.94,3.46,29a30.5,30.5,0,0,0,6.86,9.56c3.29,3.32,7.28,6.45,11.95,6.69.7,0,1.55.09,1.87.72a1.75,1.75,0,0,1,.07,1,42.63,42.63,0,0,1-10.74,23.08,16.67,16.67,0,0,1-5,4c-1.66.79-3.61,1.19-4.8,2.6,2-2.05,1.66-5.55.2-8s-3.77-4.35-5.58-6.6c-2.18-2.72-3.66-6-6.28-8.33-1.56-1.35-3.68-2.76-3.41-4.79a11.32,11.32,0,0,1-6.18,6.67c-.17-2.74.47-5.58-.39-8.19-1.33-4-5.67-6.1-8.8-9a28.5,28.5,0,0,1-5.55-7.67,66.75,66.75,0,0,1-3.57-7.9c-.32-.85-1.43-2.78-1-3.67.28-.58,1.45-.64,1.94-1C251,382.18,252,379,253,376.92A27.65,27.65,0,0,1,257.2,370Z" transform="translate(-83.81 -134.86)"/>
    <path class="cls-11" d="M306,397.76c.81-7.4,1.32-14.84,1.55-22.28a60.79,60.79,0,0,1,6.63,34.85,71.06,71.06,0,0,0,12.21-21.41,33.58,33.58,0,0,0,2.14-9.4,43.78,43.78,0,0,0-.25-6.16l-1.48-16.85L334,367.4a25.6,25.6,0,0,1,2.2,3.79c1.93,4.48,1.17,10,3.95,14a58.87,58.87,0,0,0,4.36-31c-.31-2.37-.77-4.72-1.23-7.06l-1.88-9.65a9.44,9.44,0,0,1,5.58,5.9,19.16,19.16,0,0,0,1.24,4c.82,1.44,2.33,2.35,3.35,3.65a13.3,13.3,0,0,1,1.85,3.94c2,6,4.12,12.34,3,18.61a38.45,38.45,0,0,1-3,8.67c-.14.34-.34.73-.7.81s-.87-.3-1.34-.33-1,.55-1.31,1.07l-6.37,11a21.07,21.07,0,0,1-2.68,3.92c-1.91,2-4.53,3.22-7,4.59a44.39,44.39,0,0,0-18.89,21.05c-.24.56-.71,1.25-1.29,1.05a1.24,1.24,0,0,1-.52-.47c-2.91-4.05-4.54-9-8.08-12.6-2.22-2.24-1.83-2.16-.91-5A48.53,48.53,0,0,0,306,397.76Z" transform="translate(-83.81 -134.86)"/>
    <path class="cls-11" d="M352.22,382.32A19.17,19.17,0,0,0,357,393.37c1.25-.88,1.57-2.55,1.9-4a33.88,33.88,0,0,1,5.53-12.43c1.86-2.59,4.06-4.9,5.94-7.47a36.28,36.28,0,0,0,6.5-26.26l2.21,15.12a1.82,1.82,0,0,0,.48,1.2c.87.76,2-.5,2.51-1.56,3-6.89,6-13.89,7.06-21.32a84.89,84.89,0,0,0,.32-15.54,13.75,13.75,0,0,0-.51-3.79c-.46-1.39-1.36-2.6-1.88-4-1.35-3.55,0-7.8-1.81-11.16a11.76,11.76,0,0,0-3.7-3.83,48.85,48.85,0,0,0-8.87-5.18c.35,2.36,2.18,4.17,3.49,6.16a24.67,24.67,0,0,1,3.32,9.63c1.48,8.8,1.12,17.8.76,26.72C378,328.33,371.8,323,365.9,318.12l-6.6-5.47c-.44,2,.74,3.88,1.84,5.57q2.6,4,4.95,8.11c1.79,3.14,3.51,6.46,3.8,10.07a27,27,0,0,1-.86,7.73l-2.17,10.33a25.9,25.9,0,0,1-2.27,7.21c-1,1.8-2.38,3.33-3.53,5a43.73,43.73,0,0,0-3,5.49l-6.15,12.52,1.53,1.21" transform="translate(-83.81 -134.86)"/>
    <path class="cls-11" d="M384.57,302.27c1.51,2.2,1.52,5,1.93,7.68a46.4,46.4,0,0,0,2.38,8.21,9.7,9.7,0,0,0,1.76,3.39,9.38,9.38,0,0,0,2.29,1.64l5.07,2.94c1,.55,2.5.94,2.92-.1.27-.67-.26-1.38-.7-2-2.62-3.41-3.19-7.94-3.33-12.24s.05-8.71-1.35-12.78c-1-2.91-2.78-5.48-4.34-8.14a64,64,0,0,1-7.14-17.74l-.06,1" transform="translate(-83.81 -134.86)"/>
    <path class="cls-11" d="M385.06,277.69c-.43-5.9-3.81-11.16-5.21-16.91a47.34,47.34,0,0,1-1-11.22,39.49,39.49,0,0,1,1.07-10.8c1.07-3.75,3.19-7.29,3.21-11.19-1.8,1.3-2.63,3.52-3.34,5.63q-1.94,5.7-3.59,11.5a35.64,35.64,0,0,0-1.47,6.84,32.62,32.62,0,0,0,.68,8.69,95.7,95.7,0,0,0,2.48,10.29A33.4,33.4,0,0,0,380.4,277c1.89,3.54,4.84,6.6,5.75,10.51" transform="translate(-83.81 -134.86)"/>
    <path class="cls-11" d="M399.28,286.75l9.55,11a16.87,16.87,0,0,1,2.36,3.22,14.3,14.3,0,0,1,1.25,4.16,48.6,48.6,0,0,1,.71,10,16,16,0,0,0-15.37,4.38c-1.35-2-.71-6.37-.18-8.58s2.23-2.79,3.5-4.55c1.79-2.49,1.32-6.89.89-9.73C401.6,294.13,401,288.71,399.28,286.75Z" transform="translate(-83.81 -134.86)"/>
    <path class="cls-11" d="M412.54,304.47a11.94,11.94,0,0,1,2.12,3.81,7.28,7.28,0,0,0,2.52,3.5c1.23.79,3.12.72,3.92-.5a3.15,3.15,0,0,0,.15-2.7,24.35,24.35,0,0,0-1.24-2.51c-.72-1.47-1.08-3.09-1.7-4.61a14.16,14.16,0,0,0-5.74-6.68,39.52,39.52,0,0,1,6.63,5.81,20.15,20.15,0,0,1,4.64,14.65,1.47,1.47,0,0,1-.46,1.11,1.18,1.18,0,0,1-.69.17c-2.49.09-4.66-1.75-7.13-2.06a6,6,0,0,0-4.14,1,2,2,0,0,0,1.27.45" transform="translate(-83.81 -134.86)"/>
    <path class="cls-11" d="M426.55,304c.47-3.3-2.48-5.95-4.91-8.22-4.71-4.4-8.39-9.76-12-15.07-2.33-3.39-4.73-7-5.15-11.06A3.57,3.57,0,0,1,405,267c2.12,2.62,2.83,6.06,4,9.23a32.91,32.91,0,0,0,6.76,11.12c5.89,6.39,14.05,10.19,20.68,15.8a8,8,0,0,1,2.19,2.52,7.31,7.31,0,0,1,.57,3,26.2,26.2,0,0,1-.71,6.66c-.43,1.74-1.29,3.69-3,4.11a9.07,9.07,0,0,1-2.84-.12c-2.48-.19-5.42.89-7.2-.85-1.59-1.54-1-4.13-.83-6.34a14.57,14.57,0,0,0-2.92-9.58C422.69,303.36,426.13,306.9,426.55,304Z" transform="translate(-83.81 -134.86)"/>
    <path class="cls-11" d="M404.44,217.12a19.14,19.14,0,0,0-1.1-5.88c-.68-1.62-1.79-3-2.54-4.61-.82-1.76-1.19-3.72-2.16-5.4a17.22,17.22,0,0,0-3.57-4c-3.48-3.17-7.38-6.52-12.09-6.68,5.84,3.94,12,8.22,14.84,14.65a26.88,26.88,0,0,1,2.05,9.83c.12,2.77-.43,5.73,1.15,8.18.52.79,2.59,3.47,3.79,2.54S404.55,218.49,404.44,217.12Z" transform="translate(-83.81 -134.86)"/>
    <path class="cls-11" d="M239.64,329.06a42.41,42.41,0,0,1,2.13-24.55,16.11,16.11,0,0,1,.68,6.86A27.15,27.15,0,0,1,256.37,299c-.26,2-2.42,3.06-4.21,4s-3.66,2.81-2.91,4.69l9.93-3.51a40.46,40.46,0,0,0,6-2.49,20.26,20.26,0,0,0,9.36-11.18c2,2.12,2.31,5.36,3.9,7.83,1.77,2.74,4.95,4.21,8,5.38,4.55,1.76,9.45,3.21,14.25,2.36A21.58,21.58,0,0,0,295,299l6.49,2c7.05,2.18,14.72,4.83,18.45,11.19a.43.43,0,0,1,.37-.57,22.68,22.68,0,0,0-4.18-11.42c8,5.38,12.87,14.21,16.66,23,1,2.25,1.89,4.83.92,7.08l-4-7.68a22.37,22.37,0,0,0-4.14-6.16c-2.57-2.41-6.09-3.46-9.47-4.43a59.34,59.34,0,0,0-10.34-2.29c-2.44-.24-4.91-.18-7.36-.24a73.28,73.28,0,0,1-15.4-2,16.15,16.15,0,0,1-4.92-1.84c-2.38-1.51-3.91-4-5.35-6.46a10.76,10.76,0,0,1-5.19,5.12,70,70,0,0,1-6.92,2.72A77.9,77.9,0,0,0,248,313.83a25.69,25.69,0,0,0-4.21,3c-3.77,3.58-5,9-6,14.12a.68.68,0,0,1-1,.28" transform="translate(-83.81 -134.86)"/>
    <path class="cls-11" d="M188.9,314.25c2.62-.47,5.57-.1,7.7-1.69,2.82-2.09,2.62-6.28,2.32-9.78-.62-7.37-.43-14.95,2.13-21.89a68.09,68.09,0,0,1,4.27-8.81l3.53-6.46a14,14,0,0,1,5.93,3.46c-3,2.83-7.17,4.44-9.44,7.89-1.59,2.41-2,5.39-2.27,8.27-.28,3.07-.43,6.15-.49,9.23a68.11,68.11,0,0,0,.23,8.21,88.9,88.9,0,0,0,3.09,14.5c-.33-1.18-12.27.61-13.6.85a60.57,60.57,0,0,0-6.64,1.61c-1.73.53-4,1.89-5.73,1.88C180.84,317.9,185.45,314.86,188.9,314.25Z" transform="translate(-83.81 -134.86)"/>
    <path class="cls-11" d="M203.85,312.58a4.11,4.11,0,0,0,1.87,5.24c.71-.53.62-1.62.35-2.47a12.38,12.38,0,0,0-2-3.84,1.56,1.56,0,0,0,.17,1.73" transform="translate(-83.81 -134.86)"/>
    <path class="cls-11" d="M219,222a43.48,43.48,0,0,1,7.13,2.36,68.24,68.24,0,0,1,3.75-29.58,9.89,9.89,0,0,0-3,3.82c-4,7.41-8.15,15-9.2,23.42a5.78,5.78,0,0,1,5.31,4.45" transform="translate(-83.81 -134.86)"/>
    <path class="cls-11" d="M251.71,211.28c2.51,1,5.35,2.36,7.71,1.06l1.54-8.29c3.66,2.9,4.25,8.1,6.12,12.38,1,2.17,2.69,4.41,5.07,4.43a7.51,7.51,0,0,0,2.09-.4l5-1.48a6.5,6.5,0,0,1-3.71,4.72,19.3,19.3,0,0,1-6,1.56,14.21,14.21,0,0,1-4.41.17c-3.24-.56-5.64-3.26-7.61-5.9s-3.95-5.54-7-6.81-6.36-.68-9.3.55-5.56,3.09-8.38,4.59c-1.44.77-8.26,1.64-6.17-2,.4-.68,2.26-1.17,2.94-1.56a45.68,45.68,0,0,1,4.13-2.39A23.66,23.66,0,0,1,251.71,211.28Z" transform="translate(-83.81 -134.86)"/>
    <path class="cls-11" d="M298.23,230.69a52.74,52.74,0,0,1,16.5-19.06c4.42-3.13,9.76-5.63,15.09-4.68s10,5.37,15.49,5.33a1.2,1.2,0,0,0,.93-.28,1.3,1.3,0,0,0,.26-.6,21.37,21.37,0,0,0-1.13-12.93c1.16,4,6.54,5.49,8,9.41a11.55,11.55,0,0,1,.51,3.36l.43,8.91a9.5,9.5,0,0,1-.38,4,3.25,3.25,0,0,1-3.07,2.21,4.82,4.82,0,0,1-2.79-1.8l-8.88-9.3a9,9,0,0,0-2.68-2.17,8.28,8.28,0,0,0-3.5-.51,67.24,67.24,0,0,0-10.12.79,17.62,17.62,0,0,0-7.77,2.66,22.14,22.14,0,0,0-2.88,2.68,81.89,81.89,0,0,1-14.72,12l4.18-1.2" transform="translate(-83.81 -134.86)"/>
    <path class="cls-11" d="M303.19,226.5a10.38,10.38,0,0,0-3.82,4,10.5,10.5,0,0,0,6.71-4.66.69.69,0,0,0,.14-.54c-.1-.33-.56-.32-.9-.24a8,8,0,0,0-3.05,1.21,2.79,2.79,0,0,0-1.14,2.9" transform="translate(-83.81 -134.86)"/>
  </g>
  <g id="boca">
    <path class="cls-12" d="M263.54,312.58c.24.57.36,1.18.6,1.75a2.19,2.19,0,0,0,1.25,1.28,6,6,0,0,1,4.72-2.59,1.17,1.17,0,0,0,.7-.16c.38-.29.21-.94-.18-1.21a3.75,3.75,0,0,0-1.37-.4,4.12,4.12,0,0,1-3.1-3.27,3.55,3.55,0,0,0-.42-1.66c-.49-.64-4.67,1.26-4.9,2C260.47,309.39,263.08,311.48,263.54,312.58Z" transform="translate(-83.81 -134.86)"/>
    <path class="cls-12" d="M294.06,311.82c1.48-.65,3.19.07,4.6.87a38.71,38.71,0,0,1,3.83,2.5.71.71,0,0,0,.33.15.58.58,0,0,0,.31-.14,5.86,5.86,0,0,0,2.25-3.3,1.38,1.38,0,0,0,0-.83c-.22-.56-1-.66-1.56-.68l-2.87-.06a36.51,36.51,0,0,0-7.75.38,2.73,2.73,0,0,0,2.27,1.54" transform="translate(-83.81 -134.86)"/>
    <path class="cls-13" d="M265.87,305.94l.84,2.54a2.45,2.45,0,0,0,1.72,1.92l2.52,1.15a1.12,1.12,0,0,0,.53.13,1.26,1.26,0,0,0,.63-.45,5.81,5.81,0,0,1,3.34-1.45,23.6,23.6,0,0,1,6.5-.18c1.41.15,2.91.42,4.19-.19,0-.33-.32-.55-.61-.71-3.66-2-8.1-2.7-11.13-5.56-.59-.55-1.27-1.23-2.06-1.07a2.13,2.13,0,0,0-.87.48l-5.19,3.93c-.29.22-.55.75-.21.87" transform="translate(-83.81 -134.86)"/>
    <path class="cls-13" d="M267.37,305.5a2.22,2.22,0,0,0-1.25.64c-.29.37-.21,1.05.26,1.17s.79-.29,1-.65l.49-.71c.18-.26.37-.6.22-.88a.74.74,0,0,0-.38-.29,1.2,1.2,0,0,0-1,0,.78.78,0,0,0-.36.88" transform="translate(-83.81 -134.86)"/>
    <path class="cls-13" d="M266,305.84c-.31.36,0,.9.33,1.26q1.83,2,3.85,3.87c.29.26.75.52,1,.24" transform="translate(-83.81 -134.86)"/>
    <path class="cls-13" d="M265.6,306.19a4.13,4.13,0,0,0,1.08,1.87l1.32,1.58a5.83,5.83,0,0,0,.77.8,2.61,2.61,0,0,0,1.64.54.24.24,0,0,0,.2-.07.28.28,0,0,0,0-.18,2.25,2.25,0,0,0-.64-1" transform="translate(-83.81 -134.86)"/>
    <path class="cls-13" d="M265.86,307c.82,1.65,1.81,3.46,3.55,4.08.78.27,1.8.42,2,1.21a13.53,13.53,0,0,1,8.17-2.45c.78,0,1.57.16,2.36.19,1.23,0,2.47-.14,3.7-.12,3.29.06,6.41,1.52,9.69,1.69a2.85,2.85,0,0,0-1.79-2,8.49,8.49,0,0,0-2.75-.46l-6.09-.34" transform="translate(-83.81 -134.86)"/>
    <path class="cls-13" d="M265.65,307.24a8.39,8.39,0,0,0,3.41,3.47.71.71,0,0,0,.69,0c.27-.22.12-.65-.08-.93a5,5,0,0,0-1.51-1.39" transform="translate(-83.81 -134.86)"/>
    <path class="cls-13" d="M273.66,301.14a2.4,2.4,0,0,0,.55,2,2.44,2.44,0,0,0,1.91.81.33.33,0,0,0,.25-.11c.06-.1,0-.23-.1-.33a4.36,4.36,0,0,0-2.26-1.42.83.83,0,0,0-.54,0,.33.33,0,0,0-.17.46" transform="translate(-83.81 -134.86)"/>
    <path class="cls-13" d="M275.81,304a.86.86,0,0,0,.42,0,.52.52,0,0,0,.34-.51v-.05a1,1,0,0,0-.26-.55C274.89,301.27,273.72,303.47,275.81,304Z" transform="translate(-83.81 -134.86)"/>
    <path class="cls-13" d="M273.69,301.5a15.75,15.75,0,0,0,.25,1.81c.06.34.21.74.54.79a.65.65,0,0,0,.66-.48,1.34,1.34,0,0,0-.63-1.59.81.81,0,0,0-.81,0,.42.42,0,0,0,0,.7" transform="translate(-83.81 -134.86)"/>
    <path class="cls-13" d="M275.19,303.46a2,2,0,0,0,.77,1.31,1.06,1.06,0,0,0,.72.23.58.58,0,0,0,.54-.47c0-.33-.27-.59-.57-.73a2.71,2.71,0,0,0-1.22-.23,2.09,2.09,0,0,0,.41.91" transform="translate(-83.81 -134.86)"/>
    <path class="cls-13" d="M273.48,301a5.88,5.88,0,0,0-.45,1.14c-.07.28-.1.64.13.82s.64,0,.86-.22a1.64,1.64,0,0,0,.39-1,.85.85,0,0,0-.15-.6.44.44,0,0,0-.57-.09.71.71,0,0,0-.18.27c-.19.43-.37,1,0,1.34" transform="translate(-83.81 -134.86)"/>
    <path class="cls-13" d="M266.49,308.61a7.53,7.53,0,0,0,1.26,1.64,2.58,2.58,0,0,0,1.88.73l-.45,0a2.94,2.94,0,0,1-1.91-.8,5.64,5.64,0,0,1-1.24-1.7,9.83,9.83,0,0,1-1-2.49A21.66,21.66,0,0,0,266.49,308.61Z" transform="translate(-83.81 -134.86)"/>
    <path class="cls-13" d="M267.88,310.13l.95.71c.18.13.42.27.61.16s.13-.56-.05-.81c-.36-.51-1.43-2-2.23-1.69C266.21,308.9,267.44,309.81,267.88,310.13Z" transform="translate(-83.81 -134.86)"/>
    <path class="cls-13" d="M265.71,305.46a1,1,0,0,0-.27.93,3,3,0,0,0,.39.92c.19.34.51.74.89.63a.61.61,0,0,0,.35-.74,1.82,1.82,0,0,0-.48-.75c-.3-.32-.65-.67-1.08-.64a.56.56,0,0,0,.18.56" transform="translate(-83.81 -134.86)"/>
    <path class="cls-13" d="M266,305.53a5.91,5.91,0,0,0,.94,1.77c.11.14.27.29.44.25a.39.39,0,0,0,.21-.15,1.15,1.15,0,0,0,.26-.71.61.61,0,0,0-.41-.64c-.28-.05-.51.38-.28.52" transform="translate(-83.81 -134.86)"/>
    <path class="cls-13" d="M266.47,308.07c-.18.57.36,1.1.84,1.45l.66.48a.58.58,0,0,0,.35.15.39.39,0,0,0,.32-.43,1.12,1.12,0,0,0-.25-.54,10.33,10.33,0,0,0-1.33-1.47.48.48,0,0,0-.35-.18c-.24,0-.31.37-.16.56a1.06,1.06,0,0,0,.63.29" transform="translate(-83.81 -134.86)"/>
    <path class="cls-13" d="M267.19,309.56a3.28,3.28,0,0,1,.5.85,1.27,1.27,0,0,0,.67.68c.32.1.73-.11.72-.44a.7.7,0,0,0-.18-.4,2.47,2.47,0,0,0-1.42-.89.67.67,0,0,0,.46.57" transform="translate(-83.81 -134.86)"/>
    <path class="cls-13" d="M268.33,310.39a2.23,2.23,0,0,0,1.2.72,1.58,1.58,0,0,1,.48.15c.41.24.5.91,1,1,.28,0,.52-.29.46-.57a1.13,1.13,0,0,0-.51-.67,5.68,5.68,0,0,0-1.44-.76c-.41-.14-.94-.19-1.17.16l.19.2" transform="translate(-83.81 -134.86)"/>
    <path class="cls-13" d="M268.22,310l.92,1.19a.52.52,0,0,0,.52-.61.86.86,0,0,0-.6-.65,2.59,2.59,0,0,0-.92-.08" transform="translate(-83.81 -134.86)"/>
    <path class="cls-13" d="M268.9,310.21a2.08,2.08,0,0,0,.52.93.72.72,0,0,0,1,0,1.45,1.45,0,0,0-1.4-.76.31.31,0,0,0-.2.09c0,.07,0,.18.08.16" transform="translate(-83.81 -134.86)"/>
    <path class="cls-13" d="M268.41,310.68a8.88,8.88,0,0,0,2.06-.1,1.47,1.47,0,0,0-1.08-.72.85.85,0,0,0,.33.54" transform="translate(-83.81 -134.86)"/>
    <path class="cls-13" d="M294.75,310l1.15.32a1.07,1.07,0,0,0-1.66-.1" transform="translate(-83.81 -134.86)"/>
    <path class="cls-13" d="M294.65,309.55l-.92.91c.75.36,1.6-.94,2.31-.51a1,1,0,0,0-1.64-.16" transform="translate(-83.81 -134.86)"/>
    <path class="cls-13" d="M294.27,309.85l.29,1a3.33,3.33,0,0,0,1.64-.8,1.45,1.45,0,0,0-1.84.19" transform="translate(-83.81 -134.86)"/>
    <path class="cls-14" d="M266.67,314.58s15-10.82,35.7.87h0s-8.75,5.55-12.68,4.41h0S263,321.5,266.67,314.58Z" transform="translate(-83.81 -134.86)"/>
  </g>
  <g id="Camada_2" data-name="Camada 2">
    <path class="cls-15" d="M228.09,201.75s12.66-61.59,59.63-65.25c0,0,79-13.78,99.56,54.56,0,0,18,5.63,18.84,34.88,0,0,20.54,11-2,41.34,0,0-7.6,6.19-21.66,3.66,0,0,14.34,25,14.91,40.5a21.07,21.07,0,0,0,4.5,15.47s-8.44,5.06-16-16.88c0,0,11.24,19.13-3.94,51.47,0,0-5.91-1.12-5.63-18.84,0,0,4.78,21.93-12.09,35.15,0,0-6.75,11.53-6.75,14.91,0,0-6.09-45-5.91-23.34,0,2,4.22,26.15-21.09,37.4,0,0,8.15-18.84,3.65-24.47" transform="translate(-83.81 -134.86)"/>
    <path class="cls-15" d="M289.69,232.69s-11.81-12.94-18.57,0c0,0-8.43,11.25-9,21.37,0,0-1.4,6.47-13.5,11.82,0,0-7,7,6.76,18" transform="translate(-83.81 -134.86)"/>
    <path class="cls-15" d="M284.62,265.31s17.44-4.22,19.69,3.1c0,0,4.22,18-12.93,15.47,0,0-4.79,4.21-11.26,0" transform="translate(-83.81 -134.86)"/>
    <path class="cls-15" d="M262.88,261s-26.26,32.62,19.87,27" transform="translate(-83.81 -134.86)"/>
    <path class="cls-15" d="M271.88,176.62s3.37,17.26,30,4.5" transform="translate(-83.81 -134.86)"/>
    <path class="cls-15" d="M268.26,190.12s3.24,11.26,33.62,1.88" transform="translate(-83.81 -134.86)"/>
    <path class="cls-15" d="M306.75,258s10.13,15.58,30.37,6.1" transform="translate(-83.81 -134.86)"/>
    <path class="cls-15" d="M234.75,252.38s14.14,14.74,22.13,3" transform="translate(-83.81 -134.86)"/>
    <path class="cls-15" d="M304.77,278.44c10.58-4.13,26.35,13.68,26.35,13.68,9.38,24,3.19,38.63,3.19,38.63-2.62-16.13-27.56-21-27.56-21-29.63,1.69-32.63-9-32.63-9-6,4.69-27.29,12.94-27.29,12.94-7.6,6.37-7.21,18-7.21,18-18.37-19.13-3.56-38.63-3.56-38.63-11.81-5.44-13.31-24.94-13.31-24.94-20.81,1.32-22.87-15.74-22.87-15.74-9.19-25.88,9-29.44,9-29.44,1.87-32.63,24.17-37.12,24.17-37.12" transform="translate(-83.81 -134.86)"/>
    <path class="cls-15" d="M252.48,281.34s-12.85,4.93-16.42,11.72" transform="translate(-83.81 -134.86)"/>
    <path class="cls-15" d="M205.12,246.94s3.94-25.13,19.69-2.63" transform="translate(-83.81 -134.86)"/>
    <path class="cls-15" d="M213,253.88s-.56-12.38,11.81-3.94" transform="translate(-83.81 -134.86)"/>
    <path class="cls-15" d="M203.71,261s-10.59,6-12.83,24.75,0,1.45,0,1.45.37,9.61-3.57,13.18,0-.94,0-.94-11.43,10.68-9.93,22.87l-.94,1.31s-16.88,9.94-19.69,16.88a10.9,10.9,0,0,0-3.28,2.83,3.15,3.15,0,0,0-.47,1.11c-.38,2.06-3.94-45.75-14.25-58.69,0,0,31.87-18.56,20.63-56.44l-4.13-5.06s-1.69-14.06-2.25-18c0,0-1.5-14.06,1.12-19.5,0,0,6-10.5,7.13-13.87,0,0,6-15.19-20.44-9.94,0,0-23.81,15.37-5.43,28.5" transform="translate(-83.81 -134.86)"/>
    <path class="cls-15" d="M109.31,283.88S89.62,278.62,91.69,258c0,0-6.94-13.11-7.31-17.06,0,0,4.12-12.75,10.12-11.06,0,0-.19-22.13,13.31-18,0,0,5.25-15.19,21.57-6.38,0,0-1.69-12.57,1.87-17.81" transform="translate(-83.81 -134.86)"/>
    <path class="cls-15" d="M280.12,211.88s2.13,12.37-11,7.59c0,0-4.09-21.53-20.47-26.54,0,0-12.93,1.51-20.53,6.57,0,0-5.06,12.94-1.4,17.44,0,0,3.37,4.78,15.75-4.22,0,0,10.68-1.94,18.56,10.69C261,223.41,283.22,229.88,280.12,211.88Z" transform="translate(-83.81 -134.86)"/>
    <path class="cls-15" d="M387.28,191.06s-20.77-8.94-18.84,15.19a264.44,264.44,0,0,0,.84,44.18s2.53,32-20.25,40.76c0,0-8.81,3.56-17.91.93" transform="translate(-83.81 -134.86)"/>
    <path class="cls-15" d="M289.69,208.73s-7.13,24.8,12.19,22.55c0,0,10.87-17.44,24.65-18.28,0,0,5.35-7.56,25.88,13.94,0,0,11.81-18.1-12.38-31.21,0,0-23.15-12-38.15,21.49C301.88,217.22,287.39,232.61,289.69,208.73Z" transform="translate(-83.81 -134.86)"/>
    <path class="cls-15" d="M216.27,267.9S187.49,285,213,328.31c0,0-5.16,25.31,9.47,35.16,0,0,6.28,13.5,12.28,19.69l1.31,8.15,6.1-7.31V373.31S240.84,397.5,252.89,402c0,0,13.8,3.38,13.91,17.72,0,0,5.26,2.53,5.08-6.75,0,0,8,11.25,14.71,20.25,0,0,2.82,5.9,3.1,8.44,0,0,9.84-3.1,11-12.1,0,0-1.73-8.15-12.26-20.53,0,0-9.21-5.34-5.65-21.09" transform="translate(-83.81 -134.86)"/>
    <path class="cls-15" d="M309.38,402.56A67.35,67.35,0,0,1,308.33,417c-1.15,5.85-3.45,11.84-8,14.41" transform="translate(-83.81 -134.86)"/>
    <path class="cls-15" d="M309.42,415.78s-.89,11.81,7.55,9.56c0,0-6.73,1.32,15.61-24.14" transform="translate(-83.81 -134.86)"/>
    <path class="cls-15" d="M406.12,225.94s-16.87-8.16-25.87,11.53c0,0-3.94,28.69,2.25,33.47" transform="translate(-83.81 -134.86)"/>
    <path class="cls-15" d="M342,245.06s5.06-1.87,7.88,1.88" transform="translate(-83.81 -134.86)"/>
    <path class="cls-15" d="M339.19,250.43a11.14,11.14,0,0,1,9,5" transform="translate(-83.81 -134.86)"/>
    <path class="cls-15" d="M234.75,240.94s-6.37-6.08-6.66,0" transform="translate(-83.81 -134.86)"/>
    <path class="cls-15" d="M234.75,244.59s-7.22-3.47-6.66,1.18" transform="translate(-83.81 -134.86)"/>
    <path class="cls-15" d="M379,248.72a59,59,0,0,1,8.26-8.34c6.82-5.46,15.7-8.8,17.72,8.34" transform="translate(-83.81 -134.86)"/>
    <path class="cls-15" d="M395.16,253.88s5.62-11.14-7.88-13.5" transform="translate(-83.81 -134.86)"/>
    <path class="cls-15" d="M406.12,264.51s5.63,25.08,17.44,28.55c0,0,22.5,8.82,14.35,26.25,0,0,18.28,4.5,20.53,27.85,0,0,23.34,18.84,11.53,25.59,0,0,28.12,21.66,7.87,32.34,0,0,23.67,17.72,7.33,36.57,0,0,2.24,16-1.7,18.56,0,0,6.47,18.28-3.66,23.62,0,0,4.22,21.38-12.37,35.16,0,0,6.47,32.62-21.94,22.78,0,0,6.19,34.31,5.62,38.25,0,0-3.65,17.16-7.31,25.88l-.28,3.09s-9.28-7.88-8.15-29.53c0,0-29,13.22-26.72,2.53L416,569.34s-1.13-9-18.85-2.53c0,0-13.5,5.91-18,.57,0,0-3.65-2.82,9.85-19.41,0,0,6.75-10.41-12.38-6.75l-20.25,5.62s10.41-39.37,9.85-46.12l.56-13.22s7-51.19-5.06-64.41c0,0,12.37-7.31,17.72,7,0,0,9.56-8.15,16,5.35,0,0,7.31-5.51,12.94,2.87,0,0,8.71-2.31,9.84,3.32,0,0,28,8.71,45,30.09" transform="translate(-83.81 -134.86)"/>
    <path class="cls-15" d="M387.56,472.59s13.5,66.66,3.38,74.82" transform="translate(-83.81 -134.86)"/>
    <path class="cls-15" d="M380,432.66s2.25,57.09,0,62.15" transform="translate(-83.81 -134.86)"/>
    <path class="cls-15" d="M418.22,443.62S439,509.16,445.5,539.25" transform="translate(-83.81 -134.86)"/>
    <path class="cls-15" d="M408.09,440.25s19.13,62.16,23.77,84.09" transform="translate(-83.81 -134.86)"/>
    <path class="cls-15" d="M395.72,438.34s31.22,102.88,21.09,127.35" transform="translate(-83.81 -134.86)"/>
    <path class="cls-15" d="M473.91,469.5s6.75,10.69,5.9,14.34" transform="translate(-83.81 -134.86)"/>
    <path class="cls-15" d="M440.16,425.63s43,22.49,43.31,34.59" transform="translate(-83.81 -134.86)"/>
    <path class="cls-15" d="M440.16,413.42s33.22,5.46,45,28.24" transform="translate(-83.81 -134.86)"/>
    <path class="cls-15" d="M376,413.42s45.85-51.36,101.81-8.33" transform="translate(-83.81 -134.86)"/>
    <path class="cls-15" d="M433.12,404.25S389.28,415.66,381,429.08" transform="translate(-83.81 -134.86)"/>
    <path class="cls-15" d="M436.22,342.66s18.37,1.09,22.22,4.5" transform="translate(-83.81 -134.86)"/>
    <path class="cls-15" d="M436.22,367.69s28.13,0,33.75,5.06" transform="translate(-83.81 -134.86)"/>
    <path class="cls-6" d="M408.09,370.22S360.84,400.17,355.5,417" transform="translate(-83.81 -134.86)"/>
    <path class="cls-15" d="M210.66,478.22s57.93,3.66,95.34-25.88" transform="translate(-83.81 -134.86)"/>
    <path class="cls-15" d="M197.28,432.66s-42.87,22.78-5.19,58.78" transform="translate(-83.81 -134.86)"/>
    <path class="cls-15" d="M344.25,491.44s-52.87,55.12-150.19,69.75c0,0-28.12,3.09-30.94-7.31,0,0,.57-18,4.22-20.26,0,0-8.43-28.34,4.5-31.61,0,0-7.23-25.61,7.78-26.95" transform="translate(-83.81 -134.86)"/>
    <path class="cls-15" d="M217.19,358.2s-40,42.84-13.48,70.88c0,0,20.14,15.91,63.09,3.58" transform="translate(-83.81 -134.86)"/>
    <path class="cls-15" d="M177.38,322.31s22-7.05,30.13-4.74" transform="translate(-83.81 -134.86)"/>
    <path class="cls-15" d="M220.5,410.25s-10.12-1.92-8.62,6.73c0,0,4.12,6.77,12.74,1.9C224.62,418.88,232.88,411.75,220.5,410.25Z" transform="translate(-83.81 -134.86)"/>
    <path class="cls-15" d="M153.47,343.33s-1.59,29.79-8.72,33.92" transform="translate(-83.81 -134.86)"/>
    <path class="cls-15" d="M163.12,369s13.41,10.75,41.77,5.94" transform="translate(-83.81 -134.86)"/>
    <path class="cls-15" d="M194.63,406.78s-28.55,12.84-66.22,1.6c0,0-24.53,11.69-24.53-14.78v-1.72S87.75,378,88.5,339.75c0,0,2-38.08,15-58.41" transform="translate(-83.81 -134.86)"/>
    <path class="cls-15" d="M437.91,319.31a49.91,49.91,0,0,0-23.22,5.44s-28.81,30.75-45.31,48" transform="translate(-83.81 -134.86)"/>
    <path class="cls-15" d="M171.84,502s22.88,34,137.58-18.17" transform="translate(-83.81 -134.86)"/>
    <path class="cls-15" d="M216.75,539.25s40.83-2.47,88.1-37.24" transform="translate(-83.81 -134.86)"/>
    <path class="cls-15" d="M167.34,533.62s16.79,9.38,27.29,7.5" transform="translate(-83.81 -134.86)"/>
    <path class="cls-15" d="M243.65,549.45s-5,44.17-3,50.55" transform="translate(-83.81 -134.86)"/>
    <path class="cls-15" d="M297.64,528.38s-7.24,69.74,0,77.24" transform="translate(-83.81 -134.86)"/>
    <path class="cls-15" d="M339.38,520.63s9,24.25,4.87,46.37c0,0,1.5,25.5,6.75,33" transform="translate(-83.81 -134.86)"/>
    <line class="cls-15" x1="294.94" y1="406.51" x2="294.94" y2="428.39"/>
    <path class="cls-15" d="M407.05,565.69s-1,12.3,1.61,16.31" transform="translate(-83.81 -134.86)"/>
    <path class="cls-15" d="M397.12,566.81s8.26,26.07,5.26,33.19" transform="translate(-83.81 -134.86)"/>
    <path class="cls-15" d="M431.86,581s5,31,1.26,35.53c0,0-40.5-.75-45.56,3.38,0,0-18.56,20.62-48.18,10.87,0,0-21.8-12.37-34.53-6,0,0-33,17.63-49.1,4.87,0,0-14-12.37-36.23-9.37,0,0-23,8.25-33.9-11.25l5.63-48.68" transform="translate(-83.81 -134.86)"/>
    <path class="cls-15" d="M189.38,446.25s31.68,24.19,97.21-13" transform="translate(-83.81 -134.86)"/>
    <path class="cls-15" d="M199.24,423.24s-5.3,20.81-2,27" transform="translate(-83.81 -134.86)"/>
    <path class="cls-15" d="M373.75,629.34l-5.13,36.28,11.85,4.88s6.55,0,10.66,1.5l15.73,7.12s-4,3,16.77,5.63a7.75,7.75,0,0,1,0,9s1.95,10.13-3.65,12.75c0,0-.73,11.62-7.86,11.62,0,0-14.83,18-26.26,4.46a26.34,26.34,0,0,1-3-4.46" transform="translate(-83.81 -134.86)"/>
    <path class="cls-15" d="M318.61,623.34s12.51,34.41,3.89,44.91c0,0-7.88,16.13-6,22.87,0,0-14.88,11.26,4.37,22.88,0,0,64.25,43.12,90.88,24.38,0,0,40.16-21,13.33-48.38" transform="translate(-83.81 -134.86)"/>
    <path class="cls-15" d="M387.56,671.11s-34.68,17.39-34.31,41c0,0,15.75,13.13,22.5,12.76h3s-6.37-18.38,6.37-28.5c0,0,10.41-13.2,15-13.16h8.58l-1.8-4.1" transform="translate(-83.81 -134.86)"/>
    <path class="cls-15" d="M316.5,691.12s4.14,8,10.37,10.69a11.65,11.65,0,0,0,1.63.57c7.12,1.87,14.09,1.27,22.5,7.87" transform="translate(-83.81 -134.86)"/>
    <path class="cls-15" d="M375,700.69s16.5-26.94,25.08-22.21" transform="translate(-83.81 -134.86)"/>
    <line class="cls-15" x1="294.94" y1="590.02" x2="306.01" y2="591.16"/>
    <line class="cls-15" x1="269.44" y1="577.26" x2="258.77" y2="570.67"/>
    <path class="cls-15" d="M314.49,693.05s1.07,13.45,42.89,30.14c0,0,24.93,15.81,53.24,4.43,0,0,21.19-12.82,19.32-29.63" transform="translate(-83.81 -134.86)"/>
    <path class="cls-15" d="M219.52,620.25s-.52,34.5,2.1,40.87c0,0,1.32-2.43,3.76-1.68" transform="translate(-83.81 -134.86)"/>
    <path class="cls-15" d="M220.55,661.12s-11.11,1.32-14.3,2.26l-5.06-2.26s-11.25,9-19.5,8.07c0,0-3.94,4.12-3.38,6.19l-.05,1.87-20.95,2.06s-7.5,2.81-4.31,9.75c0,0-.75,10,4.69,8.93,0,0,1.69,24,25.5,10.84l2.43-2" transform="translate(-83.81 -134.86)"/>
    <path class="cls-15" d="M270.19,635.06s-9.19,31.5-5.44,40.5c0,0,14.25,20.25,12.94,31.32a51.76,51.76,0,0,1-35.78,20.24s-49.91,8.26-65.1,3.57c0,0-27.19-7.5-29.81-15,0,0-4-16.77,5.21-28.73" transform="translate(-83.81 -134.86)"/>
    <path class="cls-15" d="M179.44,677.06l4.12-3.56s9.94,10.88,10.32,17.62l.93,30,26.81-2.06s0-34.37-2.81-35.46c0,0-4.69-15-12.19-19.29" transform="translate(-83.81 -134.86)"/>
    <path class="cls-15" d="M183.19,708.83s8.06,5.9,11.43,6.28" transform="translate(-83.81 -134.86)"/>
    <path class="cls-15" d="M247.12,664.31s14.44,22.69-4.31,23.63" transform="translate(-83.81 -134.86)"/>
    <path class="cls-15" d="M221.62,708s27.38-2.49,35.44-2.47c0,0,14-2.21,13.07-21.34" transform="translate(-83.81 -134.86)"/>
    <path class="cls-15" d="M147,698.5s0,25.25,47.8,22.62" transform="translate(-83.81 -134.86)"/>
    <path class="cls-15" d="M221.62,719.06s53-7.78,53-26" transform="translate(-83.81 -134.86)"/>
    <polygon class="cls-15" points="73.5 544.45 73.5 550.45 81.19 552.1 81.19 544.45 73.5 544.45"/>
    <line class="cls-15" x1="94.69" y1="557.86" x2="89.62" y2="559.64"/>
    <path class="cls-15" d="M153,689.06s1.68-4.31,4.31-3.75c0,0-1.69,6.57,3.85,8.44l4.78.75V687h8.25" transform="translate(-83.81 -134.86)"/>
    <path class="cls-15" d="M157.69,698,162,694.5c-.55,15.7,13.69,11.56,13.69,11.56,3.93-5.32-2.25-11.56-2.25-11.56h-7.5" transform="translate(-83.81 -134.86)"/>
    <path class="cls-15" d="M415.12,683.6s-3.37,3.21-1.87,7.52h3.94s2.83-3.69,3.19-6.81" transform="translate(-83.81 -134.86)"/>
    <path class="cls-15" d="M396.85,708s-3.1,8.81-1.6,9.56,8.81,1.5,8.81,1.5,7.32-4.5,6.75-7.87C410.81,711.19,404.83,705.19,396.85,708Z" transform="translate(-83.81 -134.86)"/>
    <line class="cls-15" x1="306.01" y1="571.83" x2="313.04" y2="573.14"/>
    <path class="cls-15" d="M402.84,699.75s2.93-.23,6-.23,6.28.23,6.85,1.17c0,0-.32,9.56-4.85,9.56,0,0-4.42.33-2.18-9.56" transform="translate(-83.81 -134.86)"/>
    <path class="cls-15" d="M407.25,692.06h12.19a6,6,0,0,1-2.81,8.63l-7.37-2.7" transform="translate(-83.81 -134.86)"/>
    <path class="cls-15" d="M410.84,698s.14-5.93,2-5.93" transform="translate(-83.81 -134.86)"/>
    <line class="cls-15" x1="327.03" y1="578.29" x2="327.03" y2="582.89"/>
    <path class="cls-15" d="M415.62,701.64s4.57-.62,3.82,3.24" transform="translate(-83.81 -134.86)"/>
    <path class="cls-15" d="M420.38,693.05s3-2,3.25,2" transform="translate(-83.81 -134.86)"/>
    <path class="cls-15" d="M154.12,186.75s-4.12-6.55-9.37-5.53,0-2,0-2,4.5-13.5,16.5-6.37" transform="translate(-83.81 -134.86)"/>
    <path class="cls-15" d="M117.38,216s6.74,16.62,17.62,10.94l3-8.32Z" transform="translate(-83.81 -134.86)"/>
    <polyline class="cls-15" points="45.56 81.14 45.56 73.87 45.56 70.64"/>
    <path class="cls-15" d="M91.69,258s15.93,8.53,19.69,6.51c0,0,2.62-2.39,0-10.63,0,0,7.87-2.62,9-6.75a12.29,12.29,0,0,0,8-5.86s-20.72-13.65-11-25.27c0,0,8.09,17.42,17.62,10.94" transform="translate(-83.81 -134.86)"/>
    <path class="cls-15" d="M142.42,231.43" transform="translate(-83.81 -134.86)"/>
    <path class="cls-15" d="M155.25,224.25s-15-4.13-17.25-8.25l-2.36,2.33" transform="translate(-83.81 -134.86)"/>
    <path class="cls-15" d="M107.81,211.88s-.58,16.87,2.24,21.37l7,9.36,3.37,4.52" transform="translate(-83.81 -134.86)"/>
    <polygon class="cls-15" points="40.66 103.38 35.06 107.48 28.12 100.92 34.26 96.56 40.66 103.38"/>
    <path class="cls-15" d="M94.5,229.88s.75,16.7,6,17.72c0,0,4-7.58,7.26-7.22,0,0,6.28.74,6.31,6.56l-6.26,5.44,3.57,1.5" transform="translate(-83.81 -134.86)"/>
    <path class="cls-16" d="M97.82,261s-.32-7.88,3.43-8.62l6.51,3-3.48,7.17-.57.83" transform="translate(-83.81 -134.86)"/>
    <path class="cls-16" d="M107.81,252.38l-7.31-4.78s5.13-7.2,6.19-7.21h1.07s4.42.59,6.29,6C114.05,246.38,108.19,251.39,107.81,252.38Z" transform="translate(-83.81 -134.86)"/>
    <path class="cls-17" d="M324,508.48l6.73-.65,9.5-.92,20.44-2,5.29-.51-2.15,11.67s-12.13,1.69-24.38,2.78c-11.71,1-23.53,1.53-24.93-.53Z" transform="translate(-83.81 -134.86)"/>
    <path class="cls-15" d="M336.32,252.38s-21.66,9.18-26.93-3.66c0,0-6.66-12.34,5.1-21.78,0,0,20.39-11.09,27.51,11.3C342,238.24,342.85,250.29,336.32,252.38Z" transform="translate(-83.81 -134.86)"/>
    <path class="cls-15" d="M324.77,252.92s-14.67-5.39-3.78-18c0,0,14.63-4.52,13.35,10.82,0,.58-.12,1.19-.22,1.83C334.12,247.6,334.17,255,324.77,252.92Z" transform="translate(-83.81 -134.86)"/>
    <path class="cls-15" d="M240.63,248.72S224,237,244.27,222.06c0,0,17.48-7.33,19.35,16.18C263.62,238.24,269,253.69,240.63,248.72Z" transform="translate(-83.81 -134.86)"/>
    <path class="cls-15" d="M246.83,228.12s-12.67,11.41,0,17.65c0,0,7.84,3.4,11.5-6.18C258.33,239.59,261.16,229,246.83,228.12Z" transform="translate(-83.81 -134.86)"/>
    <path class="cls-15" d="M304.85,309.84c-1.14,14.34-31.47,9.87-31.47,9.87-7.13.58-12.58-11.87-12.58-11.87" transform="translate(-83.81 -134.86)"/>
    <path class="cls-15" d="M258.56,322.31s19,26.44,50.83,1.69" transform="translate(-83.81 -134.86)"/>
    <path class="cls-15" d="M249.13,314.1s4.37,36.68,28.75,20.48" transform="translate(-83.81 -134.86)"/>
    <path class="cls-15" d="M324.56,317.1s-14.35,35.52-36.16,17.48" transform="translate(-83.81 -134.86)"/>
    <path class="cls-15" d="M394.7,270.94s.92,17.44,17.8,31.31c0,0,3.26,7.21,2.19,11.85" transform="translate(-83.81 -134.86)"/>
    <path class="cls-15" d="M408.09,288.65s18.05,13.3,15.54,28.45" transform="translate(-83.81 -134.86)"/>
    <path class="cls-15" d="M398.05,319.3s15.86-8.19,29,1.07" transform="translate(-83.81 -134.86)"/>
    <path class="cls-15" d="M208.88,222.94s13.75-4.88,16.48,6.56c0,0-.92,26.53-2.61,38.62" transform="translate(-83.81 -134.86)"/>
    <line class="cls-15" x1="142.87" y1="82.08" x2="141.55" y2="94.64"/>
    <path class="cls-15" d="M361.69,423.09s-18.28-12.08-23.63,2.54c0,0-17.72-11.82-19.4,14.62,0,0-17.16-1.41-10.69,17.72,0,0-12,14.91,1.45,24.33,0,0,28.92,14.2,57.33,5.2" transform="translate(-83.81 -134.86)"/>
    <line class="cls-15" x1="269.72" y1="296.53" x2="255.37" y2="288.37"/>
    <path class="cls-15" d="M128.41,239.59s16.53,2.51,16.34-1.35" transform="translate(-83.81 -134.86)"/>
    <path class="cls-15" d="M126,268.12s1.48-24.54,10.58-21.13" transform="translate(-83.81 -134.86)"/>
    <path class="cls-15" d="M134.44,240.94s-.75,8.06,10.31,8.76" transform="translate(-83.81 -134.86)"/>
    <polyline class="cls-16" points="35.06 107.48 28.12 100.92 34.26 96.56 39.79 102.45 40.66 103.38 35.7 107.01"/>
  </g>
</svg>
